<?xml version="1.0" standalone="no"?>
<!DOCTYPE svg PUBLIC "-//W3C//DTD SVG 1.1//EN" "http://www.w3.org/Graphics/SVG/1.1/DTD/svg11.dtd" >
<svg xmlns="http://www.w3.org/2000/svg" xmlns:xlink="http://www.w3.org/1999/xlink" version="1.1">
<metadata></metadata>
<defs>
<font id="flare_light_gothiclight" horiz-adv-x="1024" >
<font-face units-per-em="2048" ascent="1638" descent="-410" />
<missing-glyph horiz-adv-x="520" />
<glyph unicode="&#xfb01;" horiz-adv-x="1050" d="M53 889l84 115h33v159q0 68 10 126.5t39 102.5t79 68.5t128 24.5q35 0 69.5 -8.5t69.5 -8.5q16 0 28.5 4.5t29.5 16.5l24 -266q-49 90 -91 122.5t-107 32.5q-41 0 -66 -9t-40 -32.5t-20.5 -65.5t-5.5 -108v-159h134q35 0 61.5 9t71.5 34l-68 -185q-10 16 -24.5 21.5 t-42.5 5.5h-132v-692q0 -43 4.5 -74t13.5 -53.5t26.5 -39t41.5 -30.5h-305q20 14 34.5 30.5t23 39t11.5 53.5t3 74v692h-117zM674 0q20 14 34.5 30.5t22.5 39t11 53.5t3 74v712q0 43 -3 74t-11 53.5t-22.5 39t-34.5 30.5h219v-909q0 -43 3 -74t11 -53.5t21.5 -39t36.5 -30.5 h-291zM727 1423q0 39 26.5 66t65.5 27t65.5 -27t26.5 -66t-26.5 -65.5t-65.5 -26.5t-65.5 26.5t-26.5 65.5z" />
<glyph unicode="&#xfb02;" horiz-adv-x="1056" d="M53 889l84 115h33v159q0 68 10 126.5t39 102.5t79 68.5t128 24.5q35 0 69.5 -8.5t69.5 -8.5q16 0 28.5 4.5t29.5 16.5l24 -266q-49 90 -91 122.5t-107 32.5q-41 0 -66 -9t-40 -32.5t-20.5 -65.5t-5.5 -108v-159h134q35 0 61.5 9t71.5 34l-68 -185q-10 16 -24.5 21.5 t-42.5 5.5h-132v-692q0 -43 4.5 -74t13.5 -53.5t26.5 -39t41.5 -30.5h-305q20 14 34.5 30.5t23 39t11.5 53.5t3 74v692h-117zM674 1460h225v-1263q0 -43 3 -74t11.5 -53.5t21.5 -39t36 -30.5h-291q20 14 34.5 30.5t22.5 39t11.5 53.5t3.5 74v1067q0 88 -16.5 128t-61.5 68z " />
<glyph horiz-adv-x="0" />
<glyph unicode="&#xd;" horiz-adv-x="520" />
<glyph unicode=" "  horiz-adv-x="520" />
<glyph unicode="&#x09;" horiz-adv-x="520" />
<glyph unicode="&#xa0;" horiz-adv-x="520" />
<glyph unicode="!" horiz-adv-x="692" d="M209 1364h272q-41 -47 -48 -95t-11 -108l-41 -833h-74l-39 833q-4 59 -11 107.5t-48 95.5zM227 100q0 47 33 80t80 33t80 -33t33 -80t-33 -79.5t-80 -32.5t-80 32.5t-33 79.5z" />
<glyph unicode="&#x22;" horiz-adv-x="1038" d="M285 1366h159l-45 -549h-71zM594 1366h158l-43 -549h-72z" />
<glyph unicode="#" horiz-adv-x="1210" d="M96 469l13 72h245l56 311h-240l10 72h246l86 442h78l-86 -442h313l86 442h80l-86 -442h227l-12 -72h-233l-54 -311h228l-13 -72h-233l-90 -469h-80l92 469h-313l-92 -469h-78l90 469h-240zM432 541h316l53 311h-314z" />
<glyph unicode="$" horiz-adv-x="1038" d="M154 311q29 -51 58.5 -92t66 -70.5t83 -45t109.5 -15.5q117 0 190.5 65.5t73.5 188.5q0 80 -42 139.5t-105.5 109.5t-137 97t-137 102.5t-105.5 124t-42 164.5q0 61 22.5 113.5t61.5 91.5t91 63.5t112 30.5l6 2l2 142l123 18q-27 -35 -27 -77t-2 -83q29 -6 61.5 -11 t61.5 -5t50.5 12.5t43.5 28.5l-6 -272q-45 76 -100.5 109.5t-147.5 33.5q-82 0 -143.5 -50t-65.5 -136q0 -78 42 -135.5t105.5 -105.5t137.5 -94t137.5 -101.5t105.5 -126t42 -167.5q0 -78 -26 -144t-72 -115.5t-110.5 -80t-140.5 -36.5l-2 -201l-141 -41q39 55 42 116.5 t5 127.5q-51 4 -99 21.5t-93 17.5q-35 0 -66 -25z" />
<glyph unicode="%" horiz-adv-x="1546" d="M68 930q0 68 12 145.5t43 145t86 111.5t141 44t140.5 -45t87 -111.5t45 -144t12.5 -145.5t-12.5 -146.5t-44 -145.5t-87 -112t-141.5 -45t-140 45t-86 112t-44 145.5t-12 146.5zM172 928q0 -45 5 -108.5t22.5 -122t53.5 -100.5t97 -42t97 42t54.5 100.5t23.5 122t5 108.5 q0 43 -5 107.5t-23.5 124t-54 101.5t-97.5 42q-61 0 -97 -42t-53.5 -101.5t-22.5 -124t-5 -107.5zM332 0l819 1364h102l-815 -1364h-106zM963 434q0 68 12 146.5t43 145.5t86 112t141 45t141.5 -45t86 -113t43 -145.5t12.5 -145.5t-12.5 -145.5t-43 -145t-86 -111.5 t-141.5 -44t-140 45t-86 111.5t-44 144.5t-12 145zM1065 432q0 -43 5 -106.5t23.5 -122t54.5 -100.5t97 -42t97 42t54.5 100.5t23.5 122t5 106.5q0 45 -5 109.5t-23.5 124t-54 101.5t-97.5 42q-61 0 -97 -42t-54.5 -102.5t-23.5 -125t-5 -107.5z" />
<glyph unicode="&#x26;" horiz-adv-x="1574" d="M96 555q0 168 79 304t233 208q-8 27 -9 61q0 57 23.5 105.5t61.5 82.5t88.5 52t105.5 18q41 0 81 -11t81 -11q14 0 23 5t20 11l71 -231q-49 49 -110.5 87t-132.5 38q-33 0 -64 -11.5t-53.5 -33t-36.5 -50t-14 -63.5q0 -49 26.5 -106.5t65.5 -113.5t83 -106.5t77 -84.5 l225 -242q35 98 46 201.5t11 207.5q0 41 -3 80t-7 78h252q-35 -20 -55.5 -40.5t-32.5 -45t-18.5 -55.5t-10.5 -72q-14 -115 -33.5 -227.5t-64.5 -220.5q55 -59 108.5 -114.5t109.5 -104t121.5 -87t145.5 -63.5h-327l-224 233q-70 -111 -174 -182t-239 -71q-117 0 -214.5 47 t-167 126.5t-108.5 183t-39 218.5zM250 559q0 -76 26.5 -158t75.5 -149.5t119 -110.5t156 -43q111 0 201 64.5t133 163.5l-287 315q-68 74 -127.5 155t-104.5 171q-51 -29 -88 -75t-59.5 -101.5t-33.5 -116t-11 -115.5z" />
<glyph unicode="'" horiz-adv-x="393" d="M115 1366h164l-46 -549h-75z" />
<glyph unicode="(" horiz-adv-x="485" d="M96 532q0 229 81 440.5t220 391.5h62q-117 -186 -168 -400t-51 -432q0 -219 51 -433t168 -400h-62q-139 180 -220 392t-81 441z" />
<glyph unicode=")" horiz-adv-x="485" d="M27 -301q117 186 168 400t51 433q0 217 -51.5 431.5t-167.5 400.5h61q139 -180 220 -391t81 -441q0 -229 -81 -441t-220 -392h-61z" />
<glyph unicode="*" horiz-adv-x="1038" d="M240 1260l36 114q20 -23 45 -35t52.5 -20t54.5 -17.5t51 -23.5q-2 12 -2 25.5v25.5v53q0 33 -4 62.5t-20 56.5h118q-16 -27 -20 -57.5t-4 -65.5v-53v-24.5t-2 -22.5q25 14 51.5 22.5t54 17.5t53 21.5t44.5 34.5l36 -112q-4 0 -9 1t-9 1q-53 0 -100.5 -19.5t-100.5 -27.5 q39 -39 71 -89.5t81 -74.5l-96 -70q-2 27 -14.5 52.5t-30 49l-35 47t-29.5 48.5q-10 -25 -27.5 -48.5t-35 -46t-30.5 -48t-16 -54.5l-96 70q27 12 46.5 32.5t36 44t33.5 46t38 41.5q-49 8 -96.5 27.5t-96.5 19.5q-18 0 -28 -4z" />
<glyph unicode="+" d="M45 655v88h420v396h90v-396h422v-88h-422v-395h-90v395h-420z" />
<glyph unicode="," horiz-adv-x="411" d="M76 106l180 54q25 -27 41 -60.5t16 -70.5q0 -68 -25.5 -147t-54.5 -138l-141 -55q41 59 66.5 127.5t25.5 140.5q0 55 -30.5 92t-77.5 57z" />
<glyph unicode="-" horiz-adv-x="684" d="M98 498v125h488v-125h-488z" />
<glyph unicode="." horiz-adv-x="417" d="M96 96q0 47 34 79t79 32t79 -32t34 -79q0 -45 -34 -76.5t-79 -31.5t-79 31.5t-34 76.5z" />
<glyph unicode="/" horiz-adv-x="722" d="M31 0l508 1366h114l-506 -1366h-116z" />
<glyph unicode="0" horiz-adv-x="1038" d="M98 682q0 123 18.5 248t73.5 237q47 94 133.5 158t194.5 64q88 0 153.5 -34t111.5 -90.5t77 -129t48.5 -151.5t24.5 -157.5t7 -144.5q0 -68 -7 -145.5t-24.5 -156.5t-48.5 -151.5t-77 -129t-111.5 -90.5t-153.5 -34q-109 0 -194.5 63.5t-133.5 158.5q-55 113 -73.5 236.5 t-18.5 248.5zM252 678q0 -43 2 -103.5t11 -125t26.5 -129t47.5 -114.5t74 -82t105 -32t106.5 32t75 82t47 114.5t26.5 129t11 125t2 103.5t-2 104.5t-11 127t-26.5 131t-47 116.5t-73.5 83t-108 32q-61 0 -105 -32t-74 -83t-47.5 -116.5t-26.5 -131t-11 -127t-2 -104.5z" />
<glyph unicode="1" horiz-adv-x="1038" d="M262 1059q18 -6 37.5 -10.5t40.5 -4.5q59 0 102 33t72 81t46.5 104.5t23.5 103.5h104q-14 -20 -17 -38.5t-3 -43.5v-1061q0 -66 10 -124t65 -99h-297q55 41 65.5 99.5t10.5 123.5v799q-41 -47 -95 -75.5t-116 -33.5z" />
<glyph unicode="2" horiz-adv-x="1038" d="M117 100q92 72 200.5 173.5t201.5 219t155.5 244.5t62.5 252q0 57 -18.5 109.5t-52 92.5t-81.5 62.5t-110 22.5q-90 0 -145.5 -35t-110.5 -104l33 252q12 -10 25.5 -17.5t29.5 -7.5q39 0 99.5 12.5t119.5 12.5q84 0 151.5 -29t115 -79t73 -120.5t25.5 -154.5 q0 -92 -35 -188.5t-89 -186.5t-119.5 -170t-129.5 -144l-172 -174q-8 -6 -14 -13t-13 -13h228q63 0 109 4t86 16.5t78 37t85 65.5l-57 -240h-696z" />
<glyph unicode="3" horiz-adv-x="1038" d="M133 240q35 -39 69 -67t69.5 -44t78.5 -24.5t96 -8.5q68 0 120 23.5t89 65.5t56.5 97.5t19.5 120.5q0 59 -22.5 110.5t-61.5 89.5t-91 59.5t-112 21.5q-35 0 -64.5 -5t-57.5 -22l18 150q23 -6 47.5 -8t48.5 -2q111 0 178.5 67.5t67.5 177.5q0 111 -69.5 170.5 t-176.5 59.5q-92 0 -151.5 -34t-118.5 -99l37 245q31 -25 67 -24q47 0 94.5 14.5t98.5 14.5q74 0 140.5 -25t118.5 -70t83 -108.5t31 -138.5q0 -117 -55.5 -183.5t-153.5 -115.5q117 -35 187.5 -121t70.5 -213q0 -94 -32 -173t-89 -137.5t-136 -91t-173 -32.5 q-57 0 -112.5 11t-111.5 11q-37 0 -65 -20z" />
<glyph unicode="4" horiz-adv-x="1038" d="M90 389v115l572 862h155q-20 -27 -23 -57.5t-3 -61.5v-743q47 0 82.5 15.5t70.5 49.5l-41 -180h-112q0 -31 -2.5 -67.5t-2.5 -77.5q0 -72 13.5 -139.5t58.5 -104.5h-283q45 37 58.5 102.5t13.5 135.5q0 41 -2 79.5t-2 71.5h-553zM219 504h424v649z" />
<glyph unicode="5" horiz-adv-x="1038" d="M152 254q53 -86 114.5 -126t163.5 -40q76 0 132 31t91 82t52.5 116.5t17.5 133.5t-20.5 129t-59.5 108t-95 75t-126 28q-82 0 -139.5 -27t-110.5 -86l78 688h538l54 -211q-29 31 -55.5 49.5t-55.5 29.5t-61.5 14t-73.5 3h-225l-43 -366q33 10 64.5 14t66.5 4 q90 0 166.5 -36t132 -96t87.5 -140t32 -168q0 -98 -30 -187.5t-86 -156t-138 -105.5t-189 -39q-49 0 -96 11.5t-94 11.5q-23 0 -40.5 -4t-33.5 -19z" />
<glyph unicode="6" horiz-adv-x="1038" d="M113 477q0 94 27.5 201.5t84 222.5t142.5 232.5t204 232.5h254q-82 -35 -153.5 -92t-133 -128t-111.5 -151t-87 -157q82 63 186 63q96 0 171 -39t125 -102.5t77 -147.5t27 -172q0 -90 -28 -173t-80 -148.5t-127 -104.5t-171 -39q-109 0 -186.5 45.5t-126.5 118 t-71.5 161.5t-22.5 177zM256 422q0 -61 15.5 -121.5t48 -108t83 -76t119.5 -28.5q72 0 120 34t77 85t41 113.5t12 121.5t-14.5 121t-45 112t-80.5 81.5t-120 31.5q-72 0 -120 -34.5t-78.5 -89t-44 -119t-13.5 -123.5z" />
<glyph unicode="7" horiz-adv-x="1038" d="M168 1147l63 219h703q-6 -121 -51 -243t-108.5 -241.5t-136.5 -233t-135.5 -215t-103.5 -188.5t-41 -153q0 -31 17.5 -54.5t42.5 -37.5h-219q-2 12 -3 25.5t-1 27.5q0 70 37.5 156t96 181t129 198.5t136 212t120 220.5t77.5 220h-308q-49 0 -90 -3t-77.5 -13.5 t-72.5 -28.5t-75 -49z" />
<glyph unicode="8" horiz-adv-x="1038" d="M123 362q0 129 55 213.5t166 143.5q-86 45 -138 124t-52 177q0 80 26.5 147.5t75.5 116.5t115.5 77t146.5 28t146.5 -28t115.5 -77t76 -116.5t27 -147.5q0 -98 -52.5 -177t-138.5 -124q111 -59 166 -143t55 -214q0 -86 -30.5 -156.5t-84 -121.5t-126 -80t-154.5 -29 q-84 0 -155.5 29t-125 80t-84 121.5t-30.5 156.5zM276 367q0 -57 14.5 -109.5t44.5 -92.5t75 -63.5t108 -23.5t108.5 23.5t75 63.5t44 92.5t14.5 109.5q0 55 -14.5 107t-45 92t-75.5 64.5t-107 24.5q-61 0 -106 -24.5t-76 -64.5t-45.5 -92t-14.5 -107zM297 1020 q0 -49 14.5 -96t43 -83t69.5 -57.5t96 -21.5q53 0 95 21.5t70 57.5t42 83t14 96t-14 97t-42 86t-69 60.5t-96 22.5t-97 -22.5t-69.5 -60.5t-42 -86t-14.5 -97z" />
<glyph unicode="9" horiz-adv-x="1038" d="M113 924q0 90 27.5 174t79.5 148.5t127 103.5t171 39q106 0 184 -43t127.5 -114t73 -161t23.5 -184q0 -123 -41 -249t-107.5 -242.5t-148.5 -219t-164 -176.5h-252q80 33 151.5 91.5t134 130t113 151.5t86.5 155q-82 -66 -188 -65q-96 0 -171 39t-125 103.5t-75.5 147.5 t-25.5 171zM266 922q0 -61 14.5 -123t45 -111t80 -81t120.5 -32q72 0 121 36t79 90.5t43 119t13 123.5q0 61 -15 121.5t-48 107t-84 75t-121 28.5q-72 0 -119 -33t-75.5 -85t-41 -114.5t-12.5 -121.5z" />
<glyph unicode=":" horiz-adv-x="417" d="M96 96q0 47 34 79t79 32t79 -32t34 -79q0 -45 -34 -76.5t-79 -31.5t-79 31.5t-34 76.5zM96 659q0 45 34 77t79 32t79 -32t34 -77q0 -47 -34 -78.5t-79 -31.5t-79 31.5t-34 78.5z" />
<glyph unicode=";" horiz-adv-x="411" d="M74 657q0 47 33.5 79t78.5 32t79 -32t34 -79q0 -45 -34 -76.5t-79 -31.5t-78.5 31.5t-33.5 76.5zM76 106l180 54q25 -27 41 -60.5t16 -70.5q0 -68 -25.5 -147t-54.5 -138l-141 -55q41 59 66.5 127.5t25.5 140.5q0 55 -30.5 92t-77.5 57z" />
<glyph unicode="&#x3c;" d="M88 698v13l848 544v-77l-637 -414l637 -428v-205z" />
<glyph unicode="=" d="M45 512v86h932v-86h-932zM45 801v86h932v-86h-932z" />
<glyph unicode="&#x3e;" d="M88 131v78l639 416l-639 426v204l848 -565v-14z" />
<glyph unicode="?" horiz-adv-x="702" d="M78 1130l39 254q25 -18 55 -18q41 0 83 9t83 9q137 0 220 -75.5t83 -216.5q0 -92 -44 -167t-97.5 -143.5t-97.5 -134t-44 -139.5q0 -31 18.5 -51.5t41.5 -36.5l-164 -107q-12 39 -19.5 77t-7.5 77q0 104 42 185t93.5 150.5t93.5 135.5t42 139q0 43 -17.5 77t-46 58.5 t-66.5 38t-77 13.5q-76 0 -125 -37t-88 -97zM229 100q0 47 33 80t80 33t80 -33t33 -80t-33 -79.5t-80 -32.5q-45 0 -79 32.5t-34 79.5z" />
<glyph unicode="@" horiz-adv-x="1585" d="M102 606q0 178 60.5 324.5t168 250t255 161t323.5 57.5q115 0 219.5 -37t183.5 -106.5t126 -167t47 -218.5q0 -133 -46 -260t-145 -219q-45 -43 -102 -74.5t-123 -31.5q-41 0 -66.5 19.5t-41 49t-20.5 64.5t-5 67q-25 -37 -53.5 -73.5t-64.5 -66.5t-77 -48t-88 -18 q-49 0 -83.5 23.5t-57.5 60t-33 80.5t-10 85q0 76 28.5 171.5t80 178.5t124 139t162.5 56q61 0 106.5 -31.5t73.5 -78.5l17 88q27 2 52.5 5t49.5 9l-114 -479q-8 -33 -15.5 -67t-7.5 -68q0 -35 14.5 -69t55.5 -34q55 0 101 36t81 75q72 86 104.5 189.5t32.5 213.5 q0 104 -41 192.5t-109.5 151t-160.5 97t-193 34.5q-150 0 -290 -53t-242 -166q-39 -43 -74 -103.5t-60.5 -127t-41 -135t-15.5 -125.5q0 -121 46.5 -228.5t126 -187.5t185 -127t226.5 -47q133 0 240 54t211 130l55 -24q-68 -51 -127 -92.5t-122.5 -71t-134.5 -46t-159 -16.5 q-129 0 -241.5 52.5t-197.5 140.5t-136 202.5t-58 239.5zM571 496q0 -27 6.5 -54.5t20.5 -50t35.5 -37t52.5 -14.5q55 0 99 37t73 80q33 45 49.5 78.5t27.5 66.5t18.5 68t21.5 82l33 104q4 16 4 25q0 53 -33 96t-88 43q-76 0 -135.5 -58.5t-100.5 -141.5t-62.5 -172 t-21.5 -152z" />
<glyph unicode="A" horiz-adv-x="1239" d="M2 0q55 39 83 95.5t50 117.5l350 1014q6 18 11.5 36.5t5.5 36.5q0 20 -7.5 35t-21.5 31h297q-12 -14 -21.5 -29.5t-11.5 -33.5q0 -33 13 -64l340 -1016q23 -66 55.5 -125t91.5 -98h-303q16 16 29.5 38.5t13.5 49.5q0 18 -5 36.5t-9 35.5l-105 309h-496l-102 -309 q-12 -37 -12 -76q0 -27 13 -47.5t30 -36.5h-289zM401 578h422l-209 634z" />
<glyph unicode="B" horiz-adv-x="1091" d="M76 0q59 41 70.5 98.5t11.5 124.5v918q0 68 -11.5 126t-70.5 99h338q86 0 181 -6t175 -37t132 -95.5t52 -183.5q0 -111 -65.5 -181t-165.5 -99q131 -35 208 -124t77 -230q0 -121 -39 -200t-106.5 -125t-160 -65.5t-198.5 -19.5h-428zM311 109h103q80 0 157.5 7t140 36.5 t100.5 90t38 165.5q0 104 -38 163.5t-98.5 89t-137 37t-156.5 7.5h-109v-596zM311 813q27 0 57.5 -1t63.5 -1q63 0 128 6t117 29.5t86 67.5t34 120q0 74 -30 119t-77 67.5t-107.5 29.5t-121.5 7q-41 0 -78 -1t-72 -1v-442z" />
<glyph unicode="C" horiz-adv-x="983" d="M96 688q0 117 31 242t95.5 226t163.5 167t237 66q49 0 96 -9.5t96 -9.5q27 0 49.5 0.5t42.5 18.5l6 -254q-51 68 -111.5 99.5t-146.5 31.5q-117 0 -193.5 -54.5t-122.5 -139.5t-65.5 -187.5t-19.5 -198.5q0 -106 22.5 -210.5t73.5 -187.5t136 -134.5t210 -51.5 q82 0 143.5 38t106.5 104l-12 -264q-10 10 -24.5 13t-30.5 3q-53 0 -102.5 -8t-102.5 -8q-152 0 -261.5 60t-180 159.5t-103.5 226.5t-33 262z" />
<glyph unicode="D" horiz-adv-x="1200" d="M78 0q59 41 70.5 98.5t11.5 124.5v918q0 68 -11.5 126t-70.5 99h368q326 0 491 -182.5t165 -501.5q0 -160 -41 -286t-123 -214t-205 -135t-287 -47h-368zM313 109h138q133 0 227 43t153.5 119.5t86 182t26.5 228.5q0 113 -26.5 228.5t-102.5 203.5q-45 51 -97 79 t-109.5 42t-119 17t-122.5 3h-54v-1146z" />
<glyph unicode="E" horiz-adv-x="919" d="M76 0q59 41 70.5 98t11.5 125v918q0 68 -11.5 126t-70.5 99h731l16 -197q-49 59 -108.5 72.5t-132.5 13.5h-271v-452h336q47 0 79 9t65 44v-223q-29 39 -61 49t-81 10h-338v-583h351q39 0 68.5 3t54 13t45 29.5t44.5 52.5l-22 -207h-776z" />
<glyph unicode="F" horiz-adv-x="862" d="M76 0q59 41 70.5 98t11.5 125v918q0 68 -11.5 126t-70.5 99h715l18 -201q-47 63 -112.5 76.5t-139.5 13.5h-246v-467h316q47 0 80.5 10.5t64.5 49.5v-232q-29 41 -62.5 52.5t-82.5 11.5h-316v-457q0 -66 11.5 -124t70.5 -99h-317z" />
<glyph unicode="G" horiz-adv-x="1196" d="M96 680q0 152 42 281t124 224t202 149.5t277 54.5q57 0 109.5 -11.5t99.5 -11.5q16 0 30 6.5t26 16.5l-5 -246q-96 123 -253 123q-127 0 -220.5 -46t-154 -125t-90 -184.5t-29.5 -224.5q0 -125 32.5 -231.5t98.5 -185.5t164 -123t231 -44q59 0 115 13v553 q-59 0 -111.5 -8.5t-99.5 -49.5l8 168h357v-643q0 -35 4 -68.5t24 -62.5q-16 -6 -55 -10t-82 -7t-83 -5t-60 -2q-164 0 -294 47t-220 137t-138.5 220t-48.5 296z" />
<glyph unicode="H" horiz-adv-x="1232" d="M78 0q59 41 70.5 98.5t11.5 124.5v918q0 68 -11.5 126t-70.5 99h317q-59 -41 -70.5 -98.5t-11.5 -126.5v-340h607v340q0 68 -11.5 126t-70.5 99h317q-59 -41 -70.5 -98.5t-11.5 -126.5v-918q0 -33 2 -64.5t10.5 -60t24.5 -53.5t45 -45h-317q61 41 71.5 98.5t10.5 124.5 v469h-607v-469q0 -66 11.5 -124t70.5 -99h-317z" />
<glyph unicode="I" horiz-adv-x="471" d="M76 0q59 41 70.5 98t11.5 125v918q0 68 -11.5 126t-70.5 99h317q-59 -41 -70.5 -98.5t-11.5 -126.5v-918q0 -66 11.5 -124t70.5 -99h-317z" />
<glyph unicode="J" horiz-adv-x="481" d="M-166 -111q37 -33 79 -53t93 -20q98 0 130 54t32 144v1129q0 66 -11.5 124t-70.5 99h317q-59 -41 -70 -98.5t-11 -124.5v-1123q0 -109 -25 -170t-63.5 -92.5t-86 -43t-93.5 -17.5t-85 -18.5t-59 -45.5z" />
<glyph unicode="K" horiz-adv-x="1126" d="M78 0q59 41 70.5 98.5t11.5 124.5v918q0 68 -11.5 126t-70.5 99h317q-59 -41 -70.5 -98.5t-11.5 -126.5v-346l428 432q16 18 37 39.5t21 48.5q0 16 -8.5 27.5t-18.5 23.5h352q-86 -41 -154.5 -97.5t-135.5 -123.5l-371 -379l424 -512q61 -74 129.5 -137.5t150.5 -116.5 h-262q-18 27 -38.5 51.5t-43.5 48.5l-510 621v-498q0 -66 11.5 -124t70.5 -99h-317z" />
<glyph unicode="L" horiz-adv-x="878" d="M78 0q59 41 70.5 98.5t11.5 124.5v918q0 68 -11.5 126t-70.5 99h317q-59 -41 -70.5 -98.5t-11.5 -126.5v-1032h271q86 0 149.5 30.5t120.5 91.5l-31 -231h-745z" />
<glyph unicode="M" horiz-adv-x="1558" d="M57 0q33 25 53.5 55.5t31 66.5t14.5 73.5t6 76.5l43 875v24q0 57 -10.5 108.5t-61.5 86.5h193l454 -797l449 797h194q-55 -47 -65 -93t-10 -116q0 -8 1 -15t1 -16l49 -893q2 -68 19.5 -131t80.5 -102h-328q43 35 61.5 73t18.5 95q0 18 -1 36.5t-1 37.5l-41 819l-440 -762 l-438 762l-33 -789q-2 -18 -3 -36.5t-1 -34.5q0 -57 16.5 -108.5t67.5 -92.5h-320z" />
<glyph unicode="N" horiz-adv-x="1255" d="M76 0q59 41 70.5 98.5t11.5 124.5v918q0 68 -11.5 126t-70.5 99h225l664 -1102v877q0 68 -11.5 126t-70.5 99h295q-61 -41 -71.5 -98.5t-10.5 -126.5v-918q0 -66 11 -124t71 -99h-226l-665 1110v-887q0 -33 2 -64.5t10 -60t24.5 -53.5t45.5 -45h-293z" />
<glyph unicode="O" horiz-adv-x="1236" d="M96 682q0 119 29 244t92.5 228t161.5 169t239 66t239.5 -67t162 -169t92.5 -227t29 -244t-29 -243t-92.5 -226t-161.5 -167.5t-240 -65.5q-139 0 -238 65.5t-161.5 167.5t-92.5 226t-30 243zM254 682q0 -86 15.5 -189.5t55.5 -193.5t110.5 -150.5t182.5 -60.5 q111 0 182.5 60.5t111.5 150.5t55.5 193.5t15.5 189.5t-15.5 189.5t-55.5 194.5t-111.5 152.5t-182.5 61.5q-113 0 -183 -61.5t-110 -151.5t-55.5 -194.5t-15.5 -190.5z" />
<glyph unicode="P" horiz-adv-x="993" d="M78 0q59 41 70.5 98.5t11.5 124.5v918q0 68 -11.5 126t-70.5 99h403q90 0 177 -9t165 -61q68 -47 104 -118.5t36 -153.5q0 -129 -46.5 -201.5t-120 -108.5t-167.5 -45.5t-191 -9.5h-125v-436q0 -66 11.5 -124t70.5 -99h-317zM313 768q29 0 58.5 -1t62.5 -1q68 0 134.5 7 t119.5 31.5t86 74t33 133.5q0 82 -29.5 131t-77 74.5t-108 32.5t-123.5 7q-41 0 -81 -1t-75 -1v-487z" />
<glyph unicode="Q" horiz-adv-x="1226" d="M96 678q0 127 28 254t91.5 228.5t165.5 165t252 63.5q139 0 236.5 -66t157.5 -168t88 -226t28 -241q0 -82 -10.5 -166t-36 -163.5t-68.5 -150.5t-108 -126q-53 -43 -112.5 -64.5t-125.5 -37.5q66 -35 144.5 -52.5t152.5 -17.5q47 0 91 11.5t89 27.5l-182 -256 q-20 51 -93 85t-171.5 72.5t-207 93t-199.5 147.5t-150.5 234.5t-59.5 352.5zM254 684q0 -104 16.5 -213t67.5 -203q41 -78 116.5 -129t163.5 -51t165 51t118 129q49 94 66.5 203t17.5 213q0 106 -17.5 214t-66.5 204q-41 76 -117.5 127t-165.5 51q-88 0 -163.5 -51 t-116.5 -127q-51 -94 -67.5 -203t-16.5 -215z" />
<glyph unicode="R" horiz-adv-x="1183" d="M78 0q59 41 70.5 98.5t11.5 124.5v918q0 68 -11.5 126t-70.5 99h436q86 0 167 -13.5t143.5 -50t99.5 -103t37 -171.5q0 -129 -69 -199.5t-192 -99.5q86 -35 135.5 -92t81 -126t51 -144.5t47 -145t68.5 -128t115 -93.5h-332q31 20 31 55q0 41 -17.5 111t-44 143.5t-55 138 t-49.5 99.5q-33 51 -76 79.5t-92 43t-103 17.5t-110 3h-37v-467q0 -66 11.5 -124t70.5 -99h-317zM313 799q29 0 58.5 -1t62.5 -1q63 0 130 7t120 30.5t87 69.5t34 124q0 76 -31 122t-81 69.5t-112.5 30.5t-123.5 7q-39 0 -75 -1t-69 -1v-456z" />
<glyph unicode="S" horiz-adv-x="937" d="M39 352q39 -63 79 -111t88 -80t107.5 -48.5t135.5 -16.5q127 0 198.5 80t71.5 201q0 70 -27.5 117t-73 80.5t-103.5 57t-117.5 47t-118 51.5t-103.5 68t-72.5 98t-27.5 142q0 86 31.5 151.5t87 109.5t127 67t151.5 23q59 0 118.5 -11.5t119.5 -11.5q16 0 30.5 6.5 t26.5 16.5l10 -293q-43 84 -123 131t-176 47q-106 0 -180 -57.5t-74 -172.5q0 -78 48.5 -124t121 -79.5t156.5 -64.5t156.5 -76t121 -114.5t48.5 -182.5q0 -94 -31 -171.5t-86 -134t-134 -87t-175 -30.5q-84 0 -161 21.5t-155 21.5q-41 0 -65 -31z" />
<glyph unicode="T" horiz-adv-x="987" d="M18 1128l29 238h891l29 -238q-33 43 -65 69t-65.5 39t-69.5 17t-75 4q-29 0 -58.5 -1t-64.5 -1v-1032q0 -33 2 -64.5t10.5 -60t25 -53.5t44.5 -45h-319q59 41 70.5 98.5t11.5 124.5v1032h-92q-45 0 -86 -3t-79 -16t-73 -39t-66 -69z" />
<glyph unicode="U" horiz-adv-x="1253" d="M76 1366h317q-59 -41 -70.5 -98.5t-11.5 -124.5v-668q0 -82 17.5 -151.5t57.5 -120.5t102.5 -81t152.5 -30q94 0 153.5 30t94.5 82t48 121.5t13 149.5v668q0 68 -12 125t-70 98h308q-59 -41 -70.5 -98.5t-11.5 -124.5v-668q0 -100 -19.5 -194.5t-93.5 -167.5 q-66 -70 -157 -104t-187 -34q-244 0 -361.5 132.5t-117.5 367.5v668q0 68 -11.5 125t-70.5 98z" />
<glyph unicode="V" horiz-adv-x="1243" d="M4 1366h313q-20 -23 -31.5 -43t-11.5 -51q0 -37 10.5 -73t20.5 -71l326 -978l327 978q10 31 18.5 62t8.5 63q0 35 -14.5 62.5t-36.5 50.5h305q-66 -53 -96.5 -122.5t-57.5 -145.5l-366 -1098h-184l-369 1098q-27 76 -60.5 148.5t-101.5 119.5z" />
<glyph unicode="W" horiz-adv-x="1902" d="M4 1366h309q-23 -16 -37 -42t-14 -54q0 -29 7 -58.5t18 -58.5l284 -936l254 916q10 37 17.5 73.5t7.5 75.5q0 29 -16.5 48.5t-38.5 35.5h321q-25 -14 -41 -33.5t-16 -48.5q0 -35 10 -66.5t21 -64.5l270 -936l272 936q14 47 17 90q0 80 -62 123h311q-59 -47 -84.5 -104.5 t-46.5 -128.5l-333 -1133h-150l-328 1133l-313 -1133h-154l-346 1133q-23 76 -49 129t-90 104z" />
<glyph unicode="X" horiz-adv-x="1275" d="M14 0q70 39 114 93t87 118l340 496l-305 434q-45 66 -94.5 122t-114.5 103h315q-12 -12 -20 -25.5t-8 -31.5q0 -29 18.5 -54.5t34.5 -48.5l254 -377l248 377q14 23 29.5 46.5t15.5 52.5q0 20 -8.5 33.5t-22.5 27.5h338q-72 -35 -126 -91t-97 -122l-295 -446l364 -527 q37 -53 80 -100t103 -80h-340q14 16 24 31.5t10 38.5q0 37 -22.5 72.5t-42.5 64.5l-260 377l-254 -373q-20 -31 -42 -68t-22 -75q0 -41 39 -68h-340z" />
<glyph unicode="Y" horiz-adv-x="1212" d="M2 1366h330q-16 -14 -28.5 -29.5t-12.5 -38.5q2 -35 19.5 -66.5t33.5 -57.5l258 -420l258 420q18 29 35.5 60.5t17.5 65.5q0 23 -11 38.5t-28 27.5h336q-68 -35 -109.5 -82t-82.5 -110l-340 -553v-398q0 -66 11 -124t71 -99h-318q59 41 70.5 98.5t11.5 124.5v398 l-340 553q-41 61 -78.5 109t-103.5 83z" />
<glyph unicode="Z" horiz-adv-x="858" d="M18 0v111l666 1144h-276q-51 0 -94.5 -5t-81 -18t-71.5 -39t-69 -67l37 240h711v-121l-656 -1136h275q51 0 100 4t93 17t84 39t73 69l-45 -238h-746z" />
<glyph unicode="[" horiz-adv-x="561" d="M57 -287q31 18 49.5 46t27.5 61t12.5 68.5t3.5 72.5v96v965v100q0 35 -3.5 71t-12.5 67.5t-27.5 59.5t-49.5 46h461l25 -111q-29 33 -66 42.5t-78 9.5q-27 0 -53.5 -2t-50.5 -2v-1528q23 0 47.5 -1t48.5 -1q43 0 83 9t69 42l-25 -111h-461z" />
<glyph unicode="\" horiz-adv-x="897" d="M137 1366h117l506 -1366h-115z" />
<glyph unicode="]" horiz-adv-x="561" d="M18 -176q27 -33 65 -43t79 -10q27 0 53.5 2t48.5 2v1528q-23 0 -47 1t-51 1q-43 0 -82 -8.5t-66 -41.5l23 111h463q-35 -20 -53.5 -50t-27.5 -66t-10 -72.5t-1 -73.5v-1129q0 -37 1 -73.5t10 -71.5t27.5 -65.5t53.5 -51.5h-463z" />
<glyph unicode="^" d="M-51 586l567 848h12l545 -848h-78l-413 639l-428 -639h-205z" />
<glyph unicode="_" d="M-29 -180h1080v-88h-1080v88z" />
<glyph unicode="`" d="M301 1532h266q-16 -16 -16 -33q0 -20 20.5 -47t49 -53.5t56.5 -51l44 -38.5h-117z" />
<glyph unicode="a" horiz-adv-x="1028" d="M57 293q0 96 48.5 179t130.5 132q113 63 237.5 76.5t251.5 13.5v37q0 66 -4 120t-27.5 92t-72 59.5t-134.5 21.5q-104 0 -189 -28.5t-151 -114.5v245q20 -14 39 -20t43 -6q80 0 159 14t159 14q158 0 240.5 -76.5t82.5 -236.5v-618q0 -59 9.5 -110.5t62.5 -86.5h-194 q-20 61 -23 119q-68 -66 -147.5 -105t-176.5 -39q-74 0 -137 21.5t-109 61.5t-72 99.5t-26 135.5zM211 301q0 -49 17.5 -89t48 -69.5t72.5 -45t89 -15.5q92 0 168 51t119 129v340q-16 0 -31.5 2t-31.5 2q-72 0 -152 -15.5t-146.5 -51t-109.5 -94t-43 -144.5z" />
<glyph unicode="b" horiz-adv-x="1144" d="M88 0q39 25 61.5 58.5t31.5 73.5t11.5 84t2.5 85v963q0 57 -10.5 109t-61.5 87h219v-456q55 59 126 91.5t153 32.5q111 0 192.5 -50t136 -129t81 -177t26.5 -194q0 -100 -29 -207t-86 -195t-143 -144.5t-203 -56.5q-88 0 -152.5 35t-117.5 101q-12 -61 -50 -111h-188z M342 238q39 -68 100.5 -112t141.5 -44q92 0 153.5 49t98 122t52 159t15.5 159q0 70 -14.5 150t-49 147.5t-93 111.5t-144.5 44q-84 0 -149.5 -46t-110.5 -114v-626z" />
<glyph unicode="c" horiz-adv-x="909" d="M88 541q0 119 35 225t100.5 187t162.5 128t222 47q49 0 96.5 -10t96.5 -10q32 0 57 16l6 -237q-49 66 -107.5 101.5t-144.5 35.5q-98 0 -168.5 -44t-114.5 -113.5t-65.5 -155.5t-21.5 -172q0 -88 24.5 -169t71.5 -143.5t118.5 -100.5t168.5 -38q86 0 143 37t111 98 l-35 -248q-43 12 -92 13q-41 0 -83 -6.5t-85 -6.5q-115 0 -206 48.5t-155.5 128t-99.5 181t-35 208.5z" />
<glyph unicode="d" horiz-adv-x="1107" d="M88 543q0 104 33 208.5t94 188.5t151.5 136t204.5 52q72 0 126.5 -24.5t105.5 -71.5v232q0 57 -10.5 109t-61.5 87h217v-1263q0 -59 9.5 -110.5t62.5 -86.5h-193q-18 49 -24 104q-55 -59 -114.5 -94t-143.5 -35q-119 0 -205 49.5t-142.5 129t-83 181t-26.5 208.5z M242 543q0 -74 14 -155t49 -148.5t94.5 -112.5t149.5 -45q86 0 152.5 43t101.5 121v631q-31 72 -82 109.5t-131 37.5q-92 0 -158.5 -46t-108.5 -116.5t-61.5 -155.5t-19.5 -163z" />
<glyph unicode="e" horiz-adv-x="1069" d="M88 547q0 102 26.5 206.5t82 187.5t141.5 135t205 52q123 0 204.5 -45t133 -120.5t76 -174t30.5 -202.5h-743q0 -96 19.5 -186.5t65.5 -159t121.5 -110.5t186.5 -42q100 0 181 44t153 110l-62 -267q-29 23 -67 23q-55 0 -110.5 -11.5t-110.5 -11.5q-127 0 -226.5 43 t-167 119t-103.5 181.5t-36 228.5zM252 700h573q-4 61 -21.5 120t-51 104t-84 72.5t-119.5 27.5q-70 0 -122 -27.5t-88 -72.5t-57.5 -103.5t-29.5 -120.5z" />
<glyph unicode="f" horiz-adv-x="585" d="M53 889l84 115h33v100q0 68 6 136.5t31.5 122.5t76 88t136.5 34q37 0 71.5 -8.5t71.5 -8.5t60 21l24 -266q-16 31 -34.5 59.5t-42 50t-53.5 33.5t-68 12q-72 0 -103 -40t-31 -113q0 -55 1 -110.5t1 -110.5h70q51 0 97 7t100 36l-68 -185q-12 18 -44 22.5t-66 4.5h-89 v-692q0 -66 13.5 -114t72.5 -83h-305q51 35 61.5 86t10.5 111v692h-117z" />
<glyph unicode="g" horiz-adv-x="1021" d="M41 -115q0 80 42 136.5t103 101.5q-41 23 -69.5 60.5t-28.5 88.5q0 61 40 102.5t89 69.5q-59 49 -94 125t-35 154q0 88 34 163t91 129t135 83.5t164 29.5q47 0 93 -7t92 -16t93.5 -16.5t94.5 -7.5q41 0 79.5 11.5t75.5 27.5l-63 -147q-16 -2 -30.5 -3t-31.5 -1 q-37 0 -73 6q41 -55 65.5 -111.5t28.5 -126.5q0 -88 -32 -162.5t-87 -129t-130 -85t-163 -30.5q-123 0 -235 59q-51 -27 -51 -86q0 -43 31.5 -64.5t85 -31.5t120 -13.5t137 -8.5t137 -17t120 -41t85 -79t31.5 -130q0 -90 -44 -154.5t-112.5 -105.5t-150.5 -61.5t-158 -20.5 q-68 0 -151.5 15.5t-156.5 52.5t-122 96t-49 145zM186 -86q0 -66 33 -110t82 -70.5t107.5 -38.5t111.5 -12q49 0 105.5 10t104.5 34.5t79 65.5t31 103q0 82 -58.5 113.5t-144.5 39.5t-182 8.5t-172 20.5q-41 -31 -69 -70t-28 -94zM236 717q0 -59 20 -112.5t58 -93.5 t90.5 -62.5t113.5 -22.5q68 0 118 25.5t84 69.5t51 100.5t17 117.5t-20 114.5t-57 93.5t-88.5 62.5t-114.5 22.5q-66 0 -116 -26.5t-85 -70.5t-53 -100.5t-18 -117.5z" />
<glyph unicode="h" horiz-adv-x="1120" d="M88 0q51 35 61.5 86t10.5 111v1067q0 59 -9.5 110t-62.5 86h219v-493q57 74 135 117.5t174 43.5q74 0 146 -23.5t125 -82.5q29 -33 45 -71t23.5 -77.5t8.5 -81.5t1 -83v-512q0 -29 1 -56.5t8 -53.5t21.5 -47.5t40.5 -39.5h-219v713q0 57 -8 112.5t-31.5 99.5t-67.5 70.5 t-114 26.5q-68 0 -122 -28.5t-91 -77t-56.5 -108.5t-19.5 -122v-489q0 -29 1 -56.5t8.5 -53.5t21.5 -47.5t41 -39.5h-291z" />
<glyph unicode="i" horiz-adv-x="462" d="M86 0q51 35 61.5 86t10.5 111v712q0 57 -10.5 109.5t-61.5 87.5h219v-909q0 -29 1 -56.5t8.5 -53.5t21.5 -47.5t41 -39.5h-291zM135 1423q0 39 26.5 66t65.5 27q37 0 64.5 -27t27.5 -66t-27.5 -65.5t-64.5 -26.5q-39 0 -65.5 27.5t-26.5 64.5z" />
<glyph unicode="j" horiz-adv-x="471" d="M-117 -170q33 -25 68 -42t76 -17q47 0 75.5 19.5t43 50t18.5 69.5t4 78q0 23 -1 42t-1 38v841q0 57 -10.5 109.5t-61.5 87.5h219v-1165q0 -98 -19.5 -153.5t-53 -83.5t-75.5 -35t-88 -11t-90 -12t-81 -35zM147 1423q0 39 27 66t66 27q37 0 64.5 -27t27.5 -66t-28 -65.5 t-64 -26.5q-39 0 -66 27.5t-27 64.5z" />
<glyph unicode="k" horiz-adv-x="1073" d="M86 0q51 35 61.5 86t10.5 111v1067q0 59 -9.5 110t-62.5 86h219v-774l287 270q23 18 48.5 46t25.5 59q0 27 -23 45h340q-66 -35 -122 -79t-109 -95l-297 -273l426 -464q57 -61 112.5 -110.5t132.5 -84.5h-266l-555 610v-413q0 -29 1 -56.5t8.5 -53.5t21.5 -47.5t41 -39.5 h-291z" />
<glyph unicode="l" horiz-adv-x="471" d="M88 1460h225v-1263q0 -29 1 -56.5t8.5 -53.5t21.5 -47.5t41 -39.5h-291q51 35 61.5 86t10.5 111v1067q0 61 -11.5 111t-66.5 85z" />
<glyph unicode="m" horiz-adv-x="1759" d="M88 0q51 35 61.5 86t10.5 111v710q0 57 -10.5 109.5t-61.5 87.5h203v-141q61 78 144 121.5t183 43.5q98 0 174 -47t132 -125q63 82 144 127t187 45q86 0 152 -29.5t110 -80.5t65.5 -121t21.5 -149v-551q0 -29 1 -56.5t8 -53.5t21.5 -47.5t40.5 -39.5h-219v752 q0 53 -14.5 102t-43 86t-71.5 59.5t-100 22.5q-78 0 -130.5 -32t-83 -84t-44 -117.5t-13.5 -131.5v-460q0 -29 1 -56.5t8.5 -53.5t21.5 -47.5t41 -39.5h-219v752q0 57 -15.5 106t-46 86t-75.5 57.5t-105 20.5q-66 0 -115 -30.5t-81.5 -79t-48 -106.5t-15.5 -116v-493 q0 -29 1 -56.5t8.5 -53.5t21.5 -47.5t41 -39.5h-291z" />
<glyph unicode="n" horiz-adv-x="1122" d="M88 0q51 35 61.5 86t10.5 111v710q0 57 -10.5 109.5t-61.5 87.5h205v-146q63 80 142 125t183 45q74 0 147 -27.5t120 -86.5q59 -76 70.5 -161t11.5 -177v-479q0 -29 1 -56.5t8 -53.5t21.5 -47.5t40.5 -39.5h-219v674q0 63 -7 125.5t-31.5 112t-71.5 80t-127 30.5 q-84 0 -137.5 -37t-84 -94t-42 -128t-11.5 -138v-428q0 -29 1 -56.5t8.5 -53.5t21.5 -47.5t41 -39.5h-291z" />
<glyph unicode="o" horiz-adv-x="1103" d="M90 565q0 104 28.5 204.5t87 180.5t145.5 129t202 49t202 -49t145 -129t87 -180.5t29 -204.5q0 -109 -25.5 -214t-82 -188t-144.5 -135.5t-211 -52.5t-211 52.5t-143.5 135.5t-82 188.5t-26.5 213.5zM244 563q0 -78 11 -163t45 -155.5t94.5 -116.5t158.5 -46t158.5 46 t94.5 116.5t45 155.5t11 163q0 74 -14 155t-50 148.5t-95.5 112.5t-149.5 45t-150.5 -45t-95.5 -112.5t-49 -148.5t-14 -155z" />
<glyph unicode="p" horiz-adv-x="1107" d="M88 -369q51 35 61.5 86.5t10.5 110.5v1079q0 57 -10.5 109.5t-61.5 87.5h219v-133q59 78 127 117.5t168 39.5q102 0 181 -48t131.5 -123.5t79 -170t26.5 -184.5q0 -100 -23.5 -210.5t-76 -203t-137.5 -153t-205 -60.5q-80 0 -146.5 34t-124.5 85v-266q0 -61 11.5 -111.5 t66.5 -85.5h-297zM307 229q35 -68 103.5 -107.5t146.5 -39.5q96 0 156.5 51t94.5 128t46 165t12 164q0 66 -13 141.5t-46 140t-88 107.5t-137 43q-53 0 -97.5 -19.5t-79 -53.5t-59 -77t-39.5 -90v-553z" />
<glyph unicode="q" horiz-adv-x="1120" d="M88 532q0 106 34 213t97.5 192t155.5 138t209 53q82 0 149.5 -21.5t126.5 -21.5q31 0 54.5 11t46.5 34v-1302q0 -29 1 -56.5t8 -53t21.5 -47t40.5 -40.5h-297q57 35 68.5 85.5t11.5 111.5v281q-55 -66 -119.5 -100t-152.5 -34q-117 0 -203 47.5t-142.5 126t-83 179 t-26.5 204.5zM242 532q0 -72 15 -148.5t51 -142t94.5 -110.5t142.5 -49q98 0 163.5 51t106.5 137v676q-98 76 -215 76q-94 0 -161.5 -46t-111.5 -119t-64.5 -159t-20.5 -166z" />
<glyph unicode="r" horiz-adv-x="684" d="M88 0q51 35 61.5 86t10.5 111v710q0 57 -10.5 109.5t-61.5 87.5h211v-158q25 41 52.5 75t60 57.5t73.5 36.5t93 13q23 0 45 -4t45 -10v-196q-29 29 -62 48t-74 19q-70 0 -113.5 -39t-68 -95t-34 -121.5t-9.5 -119.5v-413q0 -29 1 -56.5t8.5 -53.5t21.5 -47.5t41 -39.5 h-291z" />
<glyph unicode="s" horiz-adv-x="856" d="M55 315q63 -111 146.5 -169t214.5 -58q98 0 159.5 55.5t61.5 153.5q0 70 -41 112t-102.5 71.5t-134 54t-134 61.5t-102.5 94.5t-41 149.5q0 74 29.5 128t79 90t112 53t127.5 17q53 0 103.5 -13t103.5 -13q20 0 34.5 8.5t28.5 22.5l15 -287q-47 86 -110.5 132t-164.5 46 q-39 0 -75.5 -11.5t-65.5 -34t-46 -55t-17 -75.5q0 -66 40.5 -104.5t102 -65.5t134.5 -51.5t134.5 -61.5t102.5 -96t41 -156q0 -80 -30 -143.5t-80 -106.5t-117.5 -65.5t-143.5 -22.5q-37 0 -73 7.5t-71.5 16.5t-70.5 17.5t-68 8.5q-35 0 -55 -25z" />
<glyph unicode="t" horiz-adv-x="696" d="M10 981l301 356v-231h228q33 0 62.5 3t55.5 26l-32 -154h-314v-696q0 -88 38 -137.5t130 -49.5q66 0 113 29t94 72l-29 -199q-90 -25 -184 -25q-57 0 -115.5 15.5t-105.5 50.5q-61 45 -74.5 108.5t-13.5 135.5v696h-154z" />
<glyph unicode="u" horiz-adv-x="1134" d="M84 1106h219v-729q0 -63 12.5 -116.5t41 -91.5t75.5 -59.5t119 -21.5q78 0 131 34t87 87t48 118.5t14 131.5v450q0 59 -10 110.5t-61 86.5h215v-909q0 -59 9 -110.5t63 -86.5h-216v135q-66 -76 -135 -118t-172 -42q-193 0 -280.5 110t-87.5 292v532q0 57 -10.5 109.5 t-61.5 87.5z" />
<glyph unicode="v" horiz-adv-x="1001" d="M2 1106h311q-35 -35 -42 -48.5t-7 -29.5q0 -45 9.5 -86t23.5 -84l205 -692l213 692q10 35 19 73t9 77q0 29 -15 54t-38 44h307q-35 -25 -56 -49.5t-37.5 -52t-28 -59.5t-23.5 -71l-285 -874h-143l-281 874q-12 39 -22 71t-25.5 59.5t-37 52t-56.5 49.5z" />
<glyph unicode="w" horiz-adv-x="1624" d="M4 1106h315q-27 -16 -42 -40t-15 -54q0 -39 11.5 -77t21.5 -73l186 -633l271 877h116l265 -877l192 633q10 35 21.5 73t11.5 75q0 61 -51 96h313q-66 -39 -91.5 -90t-45.5 -121l-287 -895h-123l-268 862l-273 -862h-118l-281 895q-23 68 -46.5 117t-82.5 94z" />
<glyph unicode="x" horiz-adv-x="960" d="M-2 0q49 25 84 46.5t62.5 48t50 61t47.5 84.5l157 331l-180 338q-39 72 -79 116t-111 81h370q-23 -16 -37 -35.5t-14 -48.5q0 -37 13.5 -75t32 -73.5t40 -70.5t37.5 -68q14 31 34.5 68t40 76t33 77.5t13.5 71.5q0 43 -31 78h330q-82 -35 -132 -99.5t-89 -142.5l-129 -266 l204 -379q41 -76 91.5 -130t128.5 -89h-361q16 12 29.5 28.5t13.5 37.5q0 16 -5 30.5t-13 28.5l-160 309l-137 -289q-8 -16 -15.5 -35.5t-7.5 -37.5q2 -39 33 -72h-344z" />
<glyph unicode="y" horiz-adv-x="1071" d="M-39 -156q43 -33 92 -52t103 -19q72 0 123 35.5t86.5 89t59.5 118t40 119.5l-275 713q-16 45 -31.5 84t-36 70.5t-50 57t-74.5 46.5h348q-20 -16 -35.5 -36.5t-15.5 -47.5q0 -35 12 -65.5t23 -61.5l213 -578l178 474q18 51 38.5 114.5t20.5 116.5q0 29 -13 48.5t-32 35.5 h336q-80 -35 -118 -95.5t-66 -138.5l-355 -909q-47 -119 -98 -183.5t-102 -95t-101.5 -36.5t-94.5 -6t-79.5 -5t-58.5 -32z" />
<glyph unicode="z" horiz-adv-x="890" d="M8 0l637 989h-262q-49 0 -92 -3t-81 -13t-74 -32.5t-70 -61.5l43 227h780l-639 -989h303q51 0 89 7t69.5 23.5t60.5 42t62 62.5l-56 -252h-770z" />
<glyph unicode="{" horiz-adv-x="722" d="M123 637v31q43 2 80 9t64.5 24.5t43 48t15.5 79.5q0 61 -2 122t-2 122q0 139 16 220t62 122t125 52.5t206 11.5v-45q-94 -2 -149.5 -22.5t-84 -56.5t-36.5 -88.5t-8 -117.5q0 -61 1 -121.5t1 -122.5q0 -43 -4.5 -82t-19.5 -71.5t-47 -58t-85 -38.5v-6q47 -8 78 -33.5 t48 -60.5t24.5 -77t7.5 -83q0 -78 -2 -154.5t-2 -154.5q0 -80 14 -132t48 -84t86 -44t130 -12v-45h-18q-80 0 -152 5t-126 31.5t-85 85t-31 162.5q0 92 3.5 183.5t3.5 183.5q0 51 -6.5 90t-28 66.5t-61 42t-107.5 18.5z" />
<glyph unicode="|" d="M457 -342v1706h110v-1706h-110z" />
<glyph unicode="}" horiz-adv-x="722" d="M51 -186q63 0 114.5 9t86.5 33.5t53.5 68.5t20.5 116q0 80 1 160t1 159q0 45 3 92.5t18.5 87.5t47 69.5t86.5 39.5v6q-55 12 -85.5 38t-46 62t-19.5 77.5t-4 87.5q0 57 1 112t1 113q0 66 -8.5 118t-37 89t-84 58.5t-149.5 23.5v45h88q76 0 135.5 -8.5t101.5 -40t63.5 -98 t21.5 -183.5q0 -59 -2 -118.5t-2 -119.5q0 -59 4 -102t23.5 -73.5t60 -47t114.5 -20.5v-31q-43 -2 -80.5 -9t-64.5 -25.5t-42 -50.5t-15 -83q0 -104 3 -207.5t3 -208.5q0 -106 -32 -163.5t-88 -84t-131 -31.5t-161 -5v45z" />
<glyph unicode="~" d="M78 557q23 37 51.5 73t64 63.5t75.5 45t87 17.5q45 0 88 -13.5t86 -29t86 -27.5t89 -12q63 0 114 31.5t90 78.5l29 -18q-20 -37 -49 -72t-65 -62.5t-77.5 -44t-84.5 -16.5q-47 0 -92.5 13.5t-90.5 30t-90 29.5t-94 13q-63 0 -106.5 -37.5t-82.5 -80.5z" />
<glyph unicode="&#xa1;" horiz-adv-x="692" d="M211 -260q41 47 48 95t11 108l39 833h74l41 -833q4 -59 11 -107.5t48 -95.5h-272zM238 1004q0 47 32.5 79.5t79.5 32.5t80 -32.5t33 -79.5t-33 -80t-80 -33t-79.5 33t-32.5 80z" />
<glyph unicode="&#xa2;" horiz-adv-x="1038" d="M174 725q0 98 23.5 197.5t75 181.5t129 138t186.5 69v137l121 16q-16 -25 -20.5 -52.5t-4.5 -55.5v-45q35 -4 65.5 -11.5t65.5 -7.5q29 0 51 17l6 -238q-43 61 -95 99t-132 38q-94 0 -157.5 -47t-102.5 -118.5t-55.5 -157.5t-16.5 -162q0 -80 19.5 -160t61.5 -144.5 t106.5 -105.5t156.5 -41q82 0 131.5 37t96.5 99l-31 -248q-41 12 -82 12q-23 0 -44 -2t-44 -6v-197l-139 -41q29 43 36 90t7 97v49q-104 10 -182 63.5t-129.5 132t-77 175t-25.5 192.5z" />
<glyph unicode="&#xa3;" horiz-adv-x="1038" d="M78 0q43 27 70.5 62.5t45 77.5t30 88t24.5 91l94 343q-16 0 -35.5 1t-40.5 1q-31 0 -59.5 -6.5t-44.5 -28.5v172q23 -23 53.5 -31t65.5 -8q23 0 46 2t44 2l4 12t4 15l72 229q18 57 46.5 119.5t68.5 115t94.5 86t123.5 33.5q23 0 44.5 -2t43.5 -2q35 0 58 17l24 -209 q-25 33 -54.5 58.5t-72.5 25.5q-74 0 -125 -56.5t-85.5 -135.5t-57 -164t-37.5 -142q16 0 33.5 -1t36.5 -1q31 0 59.5 7t48.5 30v-172q-23 10 -27.5 17t-11 11.5t-21.5 5.5t-58 1q-25 0 -48.5 -1t-39.5 -1l-152 -545h276q41 0 75 2t64.5 9t59.5 23.5t60 47.5l-31 -199h-768z " />
<glyph unicode="&#xa4;" horiz-adv-x="1366" d="M127 1192l59 59l189 -186q66 51 144.5 80t164.5 29t160 -32t145 -79l191 190l59 -59l-190 -193q47 -74 74.5 -145.5t27.5 -161.5q0 -84 -29.5 -154.5t-74.5 -138.5l192 -192l-61 -62l-191 191q-70 -47 -144.5 -77t-160.5 -30t-158.5 29t-142.5 76l-188 -189l-60 62 l186 186q-51 72 -80.5 143.5t-29.5 163.5q0 82 31.5 158t72.5 146zM330 700q0 -72 28.5 -136t76.5 -111t112.5 -75t136.5 -28t135.5 28t111.5 76t75.5 111t27.5 135t-27.5 136.5t-75.5 112.5t-111.5 77t-135.5 29q-74 0 -138.5 -29t-112.5 -77t-75.5 -112.5t-27.5 -136.5z " />
<glyph unicode="&#xa5;" horiz-adv-x="1480" d="M137 1366h330q-16 -14 -28.5 -29.5t-12.5 -38.5q2 -35 20.5 -68.5t32.5 -55.5l266 -445l250 445q14 27 27 49q10 20 18.5 41.5t8.5 35.5q0 23 -11.5 38.5t-27.5 27.5h336q-68 -35 -111 -82t-82 -110l-340 -553h207q31 0 54.5 6t45.5 30v-174q-23 25 -46 31t-54 6h-207 v-297q0 -66 11.5 -124t70.5 -99h-317q59 41 70 98.5t11 124.5v297h-196q-25 0 -39 -1t-24.5 -5t-18.5 -11t-19 -20v174q20 -25 45 -30.5t56 -5.5h196l-340 553q-35 59 -77.5 108t-104.5 84z" />
<glyph unicode="&#xa6;" d="M457 313h110v-655h-110v655zM457 680v684h110v-684h-110z" />
<glyph unicode="&#xa7;" horiz-adv-x="1038" d="M106 199q53 -111 147.5 -176.5t221.5 -65.5q43 0 82 12.5t69.5 37t49 59t18.5 81.5q0 63 -42 104.5t-105.5 72t-137 58.5t-137 66.5t-105.5 94t-42 143.5q0 80 52 144.5t120 97.5q-57 39 -93 89t-36 122q0 61 27.5 108t71.5 78t98.5 47.5t109.5 16.5q59 0 116.5 -16.5 t117.5 -16.5q25 0 41 9.5t32 25.5l9 -297q-43 80 -111 127t-160 57q-33 0 -69.5 -4t-67.5 -18.5t-51.5 -39t-20.5 -67.5q0 -53 40 -87t99.5 -60.5t128 -52t128 -60.5t99.5 -86t40 -127q0 -92 -54.5 -153.5t-132.5 -100.5q88 -49 133.5 -109.5t45.5 -167.5q0 -74 -32 -130 t-83 -94t-116.5 -57.5t-131.5 -19.5q-43 0 -82 9.5t-73.5 21.5t-66.5 21.5t-60 9.5q-39 0 -68 -33zM268 696q0 -49 27 -83.5t64.5 -60.5t82.5 -44.5t82 -32.5q33 8 65 23.5t57.5 37t40.5 50t15 67.5q0 51 -31.5 87t-76.5 60.5t-95 41t-87 32.5q-57 -23 -100.5 -67.5 t-43.5 -110.5z" />
<glyph unicode="&#xa8;" d="M246 1419q0 37 26.5 63.5t63.5 26.5t63.5 -26.5t26.5 -63.5t-26.5 -63.5t-63.5 -26.5t-63.5 26.5t-26.5 63.5zM668 1419q0 37 26.5 63.5t63.5 26.5t63.5 -26.5t26.5 -63.5t-26.5 -63.5t-63.5 -26.5t-63.5 26.5t-26.5 63.5z" />
<glyph unicode="&#xa9;" horiz-adv-x="1646" d="M113 684q0 145 56 274t152.5 225.5t225.5 153t276 56.5q145 0 274.5 -55.5t225.5 -151.5t152.5 -225.5t56.5 -276.5t-56.5 -276t-152.5 -225.5t-225.5 -153t-274.5 -56.5q-147 0 -276 56.5t-225.5 153t-152.5 225.5t-56 276zM176 684q0 -133 51.5 -251t139.5 -205 t205.5 -138t250.5 -51t251 50t205 138t138 206t51 251t-51 251t-138 205t-205 138t-251 51t-250.5 -51t-205.5 -138t-139.5 -205t-51.5 -251zM502 690q0 70 18.5 144.5t56 135t97 99.5t143.5 39q29 0 57.5 -6t57.5 -6h29.5t25.5 12l4 -154q-31 41 -66.5 60.5t-88.5 19.5 q-70 0 -116 -31.5t-74 -82t-39 -111.5t-11 -119q0 -66 13.5 -128t44 -111.5t81.5 -79t125 -29.5q49 0 86 22.5t66 63.5l-8 -160q-6 8 -14.5 9.5t-18.5 1.5q-33 0 -62.5 -5.5t-60.5 -5.5q-92 0 -157.5 36t-107.5 94.5t-61.5 135t-19.5 156.5z" />
<glyph unicode="&#xaa;" horiz-adv-x="651" d="M61 621v57h576v-57h-576zM111 965q0 47 23.5 89t64.5 66q57 33 119.5 39t125.5 6v19q0 33 -2 59.5t-14 45t-35.5 28.5t-66.5 10q-53 0 -95 -13.5t-75 -58.5v123q20 -10 41 -10q41 0 78.5 7t78.5 7q162 0 162 -159v-310q0 -29 5 -55.5t32 -42.5h-98q-4 16 -7.5 29.5 t-3.5 29.5q-35 -33 -74.5 -52t-86.5 -19q-74 0 -123 42t-49 120zM186 969q0 -49 34 -81t81 -32t84 25.5t59 64.5v170q-8 0 -16 1t-16 1q-37 0 -76 -8t-73 -25.5t-55.5 -46t-21.5 -69.5z" />
<glyph unicode="&#xab;" horiz-adv-x="929" d="M96 559l187 342l18 41q4 6 7 14.5t3 16.5t-4 20h201q-35 -31 -64.5 -69.5t-52.5 -81.5l-153 -283l153 -283q23 -41 52.5 -79.5t64.5 -71.5h-201q4 12 4 22q0 16 -11 36t-17 36zM406 559l186 342q8 16 18.5 34.5t10.5 37.5q-1 8 -5 20h203q-37 -31 -65.5 -69.5 t-51.5 -81.5l-155 -283l155 -283q23 -41 51.5 -79.5t65.5 -71.5h-203q4 12 5 22q0 18 -10.5 37t-18.5 35z" />
<glyph unicode="&#xac;" d="M72 463v84h878v-547h-192v463h-686z" />
<glyph unicode="&#xad;" horiz-adv-x="684" d="M98 498v125h488v-125h-488z" />
<glyph unicode="&#xae;" horiz-adv-x="1646" d="M113 684q0 145 56 274t152.5 225.5t225.5 153t276 56.5q145 0 274.5 -55.5t225.5 -151.5t152.5 -225.5t56.5 -276.5t-56.5 -276t-152.5 -225.5t-225.5 -153t-274.5 -56.5q-147 0 -276 56.5t-225.5 153t-152.5 225.5t-56 276zM176 684q0 -133 51.5 -251t139.5 -205 t205.5 -138t250.5 -51t251 50t205 138t138 206t51 251t-51 251t-138 205t-205 138t-251 51t-250.5 -51t-205.5 -138t-139.5 -205t-51.5 -251zM535 281q35 25 42 58.5t7 74.5v551q0 41 -7.5 75.5t-41.5 59.5h262q51 0 99 -8.5t85 -31t59.5 -61t22.5 -102.5q0 -78 -41 -121 t-115 -59q51 -20 81 -54t48.5 -76t30.5 -87t28.5 -87t42 -77t68.5 -55h-198q18 12 18 32q0 25 -11 67t-26.5 86t-33 83t-29.5 59q-41 61 -101.5 73.5t-126.5 12.5h-22v-280q0 -41 6 -76t43 -57h-190zM676 760q16 0 34.5 -1t37.5 -1q39 0 78.5 4t71.5 18.5t52.5 42t20.5 74.5 q0 45 -18.5 72.5t-49.5 42t-67.5 18.5t-73.5 4h-86v-274z" />
<glyph unicode="&#xaf;" d="M254 1372v98h514v-98h-514z" />
<glyph unicode="&#xb0;" horiz-adv-x="884" d="M244 1120q0 45 17.5 81t47 60.5t68.5 37t82 12.5q74 -8 128 -63.5t54 -131.5q0 -41 -16.5 -75.5t-43 -61.5t-63.5 -42t-76 -15q-41 0 -76.5 16t-62.5 43t-43 62.5t-16 76.5zM285 1118q0 -12 2 -20q10 -59 55 -97t102 -38q31 0 58.5 12t49 33.5t35 50t13.5 59.5 q0 66 -50 108t-112 42q-61 0 -107 -43t-46 -107z" />
<glyph unicode="&#xb1;" horiz-adv-x="1038" d="M53 113v88h932v-88h-932zM53 680v88h420v395h90v-395h422v-88h-422v-389h-90v389h-420z" />
<glyph unicode="&#xb2;" horiz-adv-x="727" d="M111 616q55 39 122.5 98.5t126 129t98.5 145.5t40 148q0 66 -44 113.5t-112 47.5q-63 0 -98 -26.5t-72 -71.5l25 182q10 -8 19 -13t22 -5q35 0 67.5 7t67.5 7q104 0 168.5 -64.5t64.5 -168.5q0 -61 -34.5 -137t-87 -150t-113 -135t-111.5 -94q31 0 58.5 -1t54.5 -1 q33 0 63.5 3t60 12t59.5 26.5t62 46.5l-40 -168h-443z" />
<glyph unicode="&#xb3;" horiz-adv-x="727" d="M121 713q47 -51 89 -75t114 -24q76 0 123 50.5t47 126.5q0 72 -51.5 114.5t-118.5 42.5q-47 0 -86 -22l14 108q33 -6 67 -6q59 0 102.5 37t43.5 100t-44 96t-104 33q-61 0 -99 -24.5t-79 -67.5l29 178q25 -20 47 -20q31 0 60.5 8t60.5 8q45 0 87 -14t75.5 -41t54 -65.5 t20.5 -86.5q0 -66 -32.5 -106.5t-85.5 -69.5q68 -29 107.5 -74t39.5 -122q0 -59 -20.5 -107.5t-57.5 -83.5t-87 -54.5t-107 -19.5q-35 0 -69 7.5t-68 7.5q-25 0 -48 -17z" />
<glyph unicode="&#xb4;" d="M354 1309l117 108q16 16 35.5 36t19.5 46q0 10 -5 17.5t-11 15.5h264l-303 -223h-117z" />
<glyph unicode="&#xb5;" horiz-adv-x="1124" d="M143 -289q0 29 5.5 59.5t9.5 59.5q29 184 43 368.5t14 370.5v367h145v-586q0 -49 6.5 -99t26 -91t56 -67.5t98.5 -26.5q84 0 142.5 48t103.5 113v709h145v-696v-17q0 -23 2 -46t9 -44.5t22.5 -35t42.5 -13.5q18 0 34.5 6t32.5 14v-32q-10 -6 -35.5 -21.5t-54 -32 t-54.5 -29t-36 -12.5q-31 0 -49 18.5t-29.5 46.5t-15.5 56.5t-6 51.5q-33 -31 -68 -64t-72.5 -58.5t-79.5 -42t-92 -16.5q-94 0 -147 47t-82 134q0 -106 14.5 -209t22.5 -209q0 -18 -3 -40t-11.5 -39.5t-23.5 -29.5t-38 -12q-41 0 -59.5 32.5t-18.5 67.5z" />
<glyph unicode="&#xb6;" horiz-adv-x="1038" d="M45 1051q0 78 37 150.5t102 113.5q55 35 121 43t131 8h99h483v-49h-39q-47 0 -72.5 -6t-38 -20.5t-14.5 -39t-2 -61.5v-29v-1167q0 -27 2 -51.5t10 -44t25.5 -31.5t50.5 -12q16 0 32.5 1t35.5 1v-47h-246v1505h-191v-1505h-262v47q47 0 81 3t54.5 16t29.5 42t9 80v721 h-86q-78 0 -142.5 21.5t-110.5 63.5t-72.5 104.5t-26.5 142.5zM174 1022q0 -51 15.5 -96t44 -78t69.5 -52.5t94 -19.5h86v541h-71q-72 0 -118 -21.5t-72.5 -59.5t-37 -92t-10.5 -122z" />
<glyph unicode="&#xb7;" horiz-adv-x="497" d="M135 559q0 47 34 79t79 32t78.5 -32t33.5 -79q0 -45 -33.5 -76.5t-78.5 -31.5t-79 31.5t-34 76.5z" />
<glyph unicode="&#xb8;" d="M334 -342q37 -16 72.5 -25.5t76.5 -9.5q39 0 69 18.5t30 61.5q0 29 -17.5 45t-44 25.5t-55.5 12.5t-49 3q-10 0 -19.5 -1t-19.5 -1l162 213h88l-121 -156q33 0 65.5 -7t59 -22.5t44 -41t17.5 -62.5t-17.5 -64.5t-44 -47t-59 -29.5t-63.5 -10q-20 0 -38.5 2t-39.5 2 q-14 0 -27.5 -2.5t-25.5 -12.5z" />
<glyph unicode="&#xb9;" horiz-adv-x="727" d="M195 1188q31 -10 59 -10q35 0 60.5 19.5t43 47t27.5 60t14 61.5h84q-12 -14 -15 -25.5t-3 -27.5v-627q0 -51 8 -81t53 -58h-227q18 12 33.5 25.5t19.5 35.5q8 37 10.5 76t2.5 80q0 94 -2.5 188.5t-4.5 188.5q-29 -25 -58.5 -38t-68.5 -18z" />
<glyph unicode="&#xba;" horiz-adv-x="653" d="M39 621v57h575v-57h-575zM96 1096q0 51 14.5 102t44 91t72.5 64.5t101 24.5q57 0 100 -24.5t72.5 -64.5t44 -91t14.5 -102q0 -53 -13.5 -106.5t-41 -95.5t-71.5 -67.5t-105 -25.5t-105.5 25.5t-72 67.5t-41 95t-13.5 107zM174 1096q0 -39 5 -82t22.5 -78t47.5 -58.5 t79 -23.5t79.5 23.5t47 58.5t22.5 78t6 82q0 37 -7 76.5t-25.5 73.5t-48 56.5t-74.5 22.5t-75 -22.5t-47.5 -56.5t-24.5 -73.5t-7 -76.5z" />
<glyph unicode="&#xbb;" horiz-adv-x="929" d="M96 125q37 33 65.5 72t51.5 79l156 283l-156 283q-23 43 -51.5 82t-65.5 69h203q-2 -4 -4 -10t-2 -10q0 -16 10 -35.5t19 -36.5l186 -342l-186 -340q-6 -16 -17.5 -35.5t-11.5 -36.5q0 -6 2 -12t4 -10h-203zM406 125q37 33 65.5 72t50.5 79l156 283l-156 283 q-23 43 -51.5 82t-64.5 69h202q-2 -4 -4 -10t-2 -10q0 -16 10.5 -35.5t18.5 -36.5l188 -342l-188 -340q-6 -16 -17.5 -35.5t-11.5 -36.5q0 -6 2 -12t4 -10h-202z" />
<glyph unicode="&#xbc;" horiz-adv-x="1640" d="M195 1188q31 -10 59 -10q35 0 60.5 19.5t43 47t27.5 60t14 61.5h84q-12 -14 -15 -25.5t-3 -29.5v-625q0 -53 8 -82t53 -57h-227q18 10 33.5 24.5t19.5 36.5q8 37 10.5 76t2.5 80q0 94 -2.5 187t-4.5 188q-29 -23 -58.5 -37.5t-68.5 -16.5zM358 0l820 1366h102l-815 -1366 h-107zM1010 229v78l356 512h115q-18 -18 -21.5 -35.5t-3.5 -40.5v-432q33 0 55.5 14.5t44.5 36.5l-30 -133h-70q0 -20 -1 -39.5t-1 -42.5q0 -43 10.5 -81.5t46.5 -65.5h-215q37 27 47.5 65.5t10.5 81.5q0 23 -1 42.5t-1 39.5h-342zM1108 311h244v355z" />
<glyph unicode="&#xbd;" horiz-adv-x="1640" d="M195 1188q31 -10 59 -10q35 0 60.5 19.5t43 47t27.5 60t14 61.5h84q-12 -14 -15 -25.5t-3 -29.5v-625q0 -53 8 -82t53 -57h-227q18 10 33.5 24.5t19.5 36.5q8 37 10.5 76t2.5 80q0 94 -2.5 187t-4.5 188q-29 -23 -58.5 -37.5t-68.5 -16.5zM358 0l820 1366h102l-815 -1366 h-107zM1024 70q57 41 123.5 99t125 128t97.5 144.5t39 150.5q0 66 -43 114t-113 48q-61 0 -96 -27t-72 -72l25 183q10 -8 19.5 -13.5t21.5 -5.5q35 0 66.5 7.5t66.5 7.5q104 0 170 -64.5t66 -169.5q0 -76 -36 -147.5t-88.5 -137t-112.5 -125t-109 -108.5q33 0 60.5 -1 t53.5 -1q68 0 123 14.5t121 73.5l-41 -168h-442z" />
<glyph unicode="&#xbe;" horiz-adv-x="1640" d="M121 715q47 -51 89 -75t114 -24q76 0 123 50.5t47 124.5q0 72 -51.5 114.5t-118.5 42.5q-45 0 -86 -20l14 108q31 -8 67 -8q59 0 102.5 38t43.5 101t-44 96t-104 33q-61 0 -99 -25.5t-79 -66.5l29 178q25 -20 47 -20q31 0 60.5 8t60.5 8q45 0 87 -14t75.5 -42t54 -66.5 t20.5 -86.5q0 -66 -32.5 -105.5t-85.5 -68.5q68 -29 107.5 -73.5t39.5 -124.5q0 -59 -20.5 -107.5t-57.5 -82.5t-87 -53t-107 -19q-35 0 -69 7t-68 7q-14 0 -25.5 -5t-22.5 -14zM358 0l820 1366h102l-815 -1366h-107zM1010 229v78l356 512h115q-16 -16 -19.5 -34.5 t-5.5 -41.5v-432q33 0 55.5 14.5t44.5 36.5l-30 -133h-70q0 -20 -1 -39.5t-1 -42.5q0 -43 10.5 -81.5t46.5 -65.5h-215q37 27 47.5 65.5t10.5 81.5q0 23 -1 42.5t-1 39.5h-342zM1108 311h244v355z" />
<glyph unicode="&#xbf;" horiz-adv-x="702" d="M61 12q0 92 44.5 167t97.5 142.5t97 134t44 142.5q0 31 -18 50.5t-41 35.5l164 107q25 -74 24 -154q0 -104 -42 -184t-92 -150t-92 -134.5t-42 -135.5q0 -43 16.5 -78t45 -60.5t66.5 -39t79 -13.5q76 0 125 36t88 97l-39 -256q-27 20 -56 21q-41 0 -82.5 -10.5 t-82.5 -10.5q-137 0 -220.5 76t-83.5 217zM246 1004q0 47 32.5 79.5t79.5 32.5t80 -32.5t33 -79.5t-32.5 -80t-80.5 -33q-47 0 -79.5 33t-32.5 80z" />
<glyph unicode="&#xc0;" horiz-adv-x="1239" d="M2 0q55 39 83 95.5t50 117.5l350 1014q6 18 11.5 36.5t5.5 36.5q0 20 -7.5 35t-21.5 31h297q-12 -14 -21.5 -29.5t-11.5 -33.5q0 -33 13 -64l340 -1016q23 -66 55.5 -125t91.5 -98h-303q16 16 29.5 38.5t13.5 49.5q0 18 -5 36.5t-9 35.5l-105 309h-496l-102 -309 q-12 -37 -12 -76q0 -27 13 -47.5t30 -36.5h-289zM401 578h422l-209 634zM412 1682h266q-16 -16 -16 -33q0 -20 20.5 -47t49 -53.5t56.5 -51l44 -38.5h-117z" />
<glyph unicode="&#xc1;" horiz-adv-x="1239" d="M2 0q55 39 83 95.5t50 117.5l350 1014q6 18 11.5 36.5t5.5 36.5q0 20 -7.5 35t-21.5 31h297q-12 -14 -21.5 -29.5t-11.5 -33.5q0 -33 13 -64l340 -1016q23 -66 55.5 -125t91.5 -98h-303q16 16 29.5 38.5t13.5 49.5q0 18 -5 36.5t-9 35.5l-105 309h-496l-102 -309 q-12 -37 -12 -76q0 -27 13 -47.5t30 -36.5h-289zM401 578h422l-209 634zM411 1459l117 108q16 16 35.5 36t19.5 46q0 10 -5 17.5t-11 15.5h264l-303 -223h-117z" />
<glyph unicode="&#xc2;" horiz-adv-x="1239" d="M2 0q55 39 83 95.5t50 117.5l350 1014q6 18 11.5 36.5t5.5 36.5q0 20 -7.5 35t-21.5 31h297q-12 -14 -21.5 -29.5t-11.5 -33.5q0 -33 13 -64l340 -1016q23 -66 55.5 -125t91.5 -98h-303q16 16 29.5 38.5t13.5 49.5q0 18 -5 36.5t-9 35.5l-105 309h-496l-102 -309 q-12 -37 -12 -76q0 -27 13 -47.5t30 -36.5h-289zM328 1461q27 20 47.5 42.5t42.5 47.5l203 239l207 -239q20 -25 40.5 -47.5t45.5 -42.5h-199q10 14 10 30q0 23 -12 45.5t-29.5 44t-37 40t-33.5 34.5q-12 -14 -30.5 -33.5t-36 -40t-31 -42t-15.5 -41.5q0 -18 6 -37h-178z M401 578h422l-209 634z" />
<glyph unicode="&#xc3;" horiz-adv-x="1239" d="M2 0q55 39 83 95.5t50 117.5l350 1014q6 18 11.5 36.5t5.5 36.5q0 20 -7.5 35t-21.5 31h297q-12 -14 -21.5 -29.5t-11.5 -33.5q0 -33 13 -64l340 -1016q23 -66 55.5 -125t91.5 -98h-303q16 16 29.5 38.5t13.5 49.5q0 18 -5 36.5t-9 35.5l-105 309h-496l-102 -309 q-12 -37 -12 -76q0 -27 13 -47.5t30 -36.5h-289zM342 1489l25 113q29 20 62.5 36.5t70.5 16.5q35 0 69 -10t66.5 -23.5t65.5 -23.5t69 -10q41 0 72 17t60 40l-25 -123q-59 -37 -129 -37q-35 0 -68.5 9.5t-65.5 20.5t-66 20.5t-68 9.5q-39 0 -73 -16.5t-65 -39.5zM401 578 h422l-209 634z" />
<glyph unicode="&#xc4;" horiz-adv-x="1239" d="M2 0q55 39 83 95.5t50 117.5l350 1014q6 18 11.5 36.5t5.5 36.5q0 20 -7.5 35t-21.5 31h297q-12 -14 -21.5 -29.5t-11.5 -33.5q0 -33 13 -64l340 -1016q23 -66 55.5 -125t91.5 -98h-303q16 16 29.5 38.5t13.5 49.5q0 18 -5 36.5t-9 35.5l-105 309h-496l-102 -309 q-12 -37 -12 -76q0 -27 13 -47.5t30 -36.5h-289zM314 1571q0 37 26.5 63.5t63.5 26.5t63.5 -26.5t26.5 -63.5t-26.5 -63.5t-63.5 -26.5t-63.5 26.5t-26.5 63.5zM401 578h422l-209 634zM736 1571q0 37 26.5 63.5t63.5 26.5t63.5 -26.5t26.5 -63.5t-26.5 -63.5t-63.5 -26.5 t-63.5 26.5t-26.5 63.5z" />
<glyph unicode="&#xc5;" horiz-adv-x="1239" d="M2 0q55 39 83 95.5t50 117.5l350 1014q6 18 11.5 36.5t5.5 36.5q0 20 -7.5 35t-21.5 31h297q-12 -14 -21.5 -29.5t-11.5 -33.5q0 -33 13 -64l340 -1016q23 -66 55.5 -125t91.5 -98h-303q16 16 29.5 38.5t13.5 49.5q0 18 -5 36.5t-9 35.5l-105 309h-496l-102 -309 q-12 -37 -12 -76q0 -27 13 -47.5t30 -36.5h-289zM401 578h422l-209 634zM401 1624q0 45 17.5 84t48.5 68t71 46t83 17q45 0 85 -17t70.5 -46t48 -68t17.5 -84t-17.5 -83.5t-48 -68.5t-70.5 -46.5t-85 -16.5q-43 0 -83 16.5t-71 46.5t-48.5 68.5t-17.5 83.5zM492 1624 q0 -53 38.5 -90t90.5 -37q53 0 91 37t38 90t-38 89t-91 36q-51 0 -90 -35.5t-39 -89.5z" />
<glyph unicode="&#xc6;" horiz-adv-x="1722" d="M2 0q78 53 132 130t104 155l593 925q14 23 30 45.5t16 51.5q0 23 -13.5 36t-32.5 23h779l16 -197q-27 33 -52.5 50.5t-55 25.5t-62.5 9t-72 1h-249v-452h315q47 0 79 9t64 44v-223q-29 39 -60.5 49t-80.5 10h-317v-583h329q76 0 123 17t90 81l-22 -207h-756 q61 41 71.5 98.5t10.5 124.5v471h-322l-307 -479q-20 -33 -46.5 -71t-26.5 -78q0 -23 12 -38.5t28 -27.5h-317zM731 805h250v426z" />
<glyph unicode="&#xc7;" horiz-adv-x="983" d="M96 690q0 117 31 241t95.5 225t163.5 167t237 66q49 0 96 -8.5t96 -8.5q27 0 49.5 5t42.5 24l6 -266q-51 70 -111.5 100.5t-146.5 30.5q-117 0 -193.5 -54.5t-122.5 -139.5t-65.5 -187.5t-19.5 -196.5q0 -106 22.5 -211.5t73.5 -189.5t136 -136.5t210 -52.5 q82 0 145.5 38t104.5 106l-12 -273q-25 25 -55 25q-39 0 -76 -8.5t-76 -8.5l-102 -133q31 0 64.5 -7t60 -22.5t44 -41t17.5 -62.5t-17.5 -64.5t-44 -47t-59.5 -29.5t-65 -10q-20 0 -39 2t-39 2q-14 0 -27.5 -2t-25.5 -13l-43 109q37 -16 72.5 -25.5t76.5 -9.5 q39 0 68.5 18.5t29.5 61.5q0 29 -17 45t-43 25.5t-54.5 12.5t-48.5 3q-10 0 -20.5 -1t-20.5 -1l143 190q-145 8 -247.5 72t-167 164t-95.5 224t-31 253z" />
<glyph unicode="&#xc8;" horiz-adv-x="919" d="M76 0q59 41 70.5 98t11.5 125v918q0 68 -11.5 126t-70.5 99h731l16 -197q-49 59 -108.5 72.5t-132.5 13.5h-271v-452h336q47 0 79 9t65 44v-223q-29 39 -61 49t-81 10h-338v-583h351q39 0 68.5 3t54 13t45 29.5t44.5 52.5l-22 -207h-776zM283 1682h266q-16 -16 -16 -33 q0 -20 20.5 -47t49 -53.5t56.5 -51l44 -38.5h-117z" />
<glyph unicode="&#xc9;" horiz-adv-x="919" d="M76 0q59 41 70.5 98t11.5 125v918q0 68 -11.5 126t-70.5 99h731l16 -197q-49 59 -108.5 72.5t-132.5 13.5h-271v-452h336q47 0 79 9t65 44v-223q-29 39 -61 49t-81 10h-338v-583h351q39 0 68.5 3t54 13t45 29.5t44.5 52.5l-22 -207h-776zM252 1459l117 108q16 16 35.5 36 t19.5 46q0 10 -5 17.5t-11 15.5h264l-303 -223h-117z" />
<glyph unicode="&#xca;" horiz-adv-x="919" d="M76 0q59 41 70.5 98t11.5 125v918q0 68 -11.5 126t-70.5 99h731l16 -197q-49 59 -108.5 72.5t-132.5 13.5h-271v-452h336q47 0 79 9t65 44v-223q-29 39 -61 49t-81 10h-338v-583h351q39 0 68.5 3t54 13t45 29.5t44.5 52.5l-22 -207h-776zM193 1456q27 20 47.5 42.5 t42.5 47.5l203 239l207 -239q20 -25 40.5 -47.5t45.5 -42.5h-199q10 14 10 30q0 23 -12 45.5t-29.5 44t-37 40t-33.5 34.5q-12 -14 -30.5 -33.5t-36 -40t-31 -42t-15.5 -41.5q0 -18 6 -37h-178z" />
<glyph unicode="&#xcb;" horiz-adv-x="919" d="M76 0q59 41 70.5 98t11.5 125v918q0 68 -11.5 126t-70.5 99h731l16 -197q-49 59 -108.5 72.5t-132.5 13.5h-271v-452h336q47 0 79 9t65 44v-223q-29 39 -61 49t-81 10h-338v-583h351q39 0 68.5 3t54 13t45 29.5t44.5 52.5l-22 -207h-776zM199 1571q0 37 26.5 63.5 t63.5 26.5t63.5 -26.5t26.5 -63.5t-26.5 -63.5t-63.5 -26.5t-63.5 26.5t-26.5 63.5zM621 1571q0 37 26.5 63.5t63.5 26.5t63.5 -26.5t26.5 -63.5t-26.5 -63.5t-63.5 -26.5t-63.5 26.5t-26.5 63.5z" />
<glyph unicode="&#xcc;" horiz-adv-x="495" d="M31 1682h266q-16 -16 -16 -33q0 -20 20.5 -47t49 -53.5t56.5 -51l44 -38.5h-117zM76 0q59 41 70.5 98t11.5 125v918q0 68 -11.5 126t-70.5 99h317q-59 -41 -70.5 -98.5t-11.5 -126.5v-918q0 -66 11.5 -124t70.5 -99h-317z" />
<glyph unicode="&#xcd;" horiz-adv-x="442" d="M16 1459l117 108q16 16 35.5 36t19.5 46q0 10 -5 17.5t-11 15.5h264l-303 -223h-117zM76 0q59 41 70.5 98t11.5 125v918q0 68 -11.5 126t-70.5 99h317q-59 -41 -70.5 -98.5t-11.5 -126.5v-918q0 -66 11.5 -124t70.5 -99h-317z" />
<glyph unicode="&#xce;" horiz-adv-x="466" d="M-49 1461q27 20 47.5 42.5t42.5 47.5l203 239l207 -239q20 -25 40.5 -47.5t45.5 -42.5h-199q10 14 10 30q0 23 -12 45.5t-29.5 44t-37 40t-33.5 34.5q-12 -14 -30.5 -33.5t-36 -40t-31 -42t-15.5 -41.5q0 -18 6 -37h-178zM76 0q59 41 70.5 98t11.5 125v918 q0 68 -11.5 126t-70.5 99h317q-59 -41 -70.5 -98.5t-11.5 -126.5v-918q0 -66 11.5 -124t70.5 -99h-317z" />
<glyph unicode="&#xcf;" horiz-adv-x="385" d="M-69 1571q0 37 26.5 63.5t63.5 26.5t63.5 -26.5t26.5 -63.5t-26.5 -63.5t-63.5 -26.5t-63.5 26.5t-26.5 63.5zM76 0q59 41 70.5 98t11.5 125v918q0 68 -11.5 126t-70.5 99h317q-59 -41 -70.5 -98.5t-11.5 -126.5v-918q0 -66 11.5 -124t70.5 -99h-317zM353 1571 q0 37 26.5 63.5t63.5 26.5t63.5 -26.5t26.5 -63.5t-26.5 -63.5t-63.5 -26.5t-63.5 26.5t-26.5 63.5z" />
<glyph unicode="&#xd0;" horiz-adv-x="1200" d="M78 0q59 41 70.5 98.5t11.5 124.5v469h-82v111h82v338q0 68 -11.5 126t-70.5 99h368q326 0 491 -182.5t165 -501.5q0 -160 -41 -286t-123 -214t-205 -135t-287 -47h-368zM313 109h138q133 0 227 43t153.5 119.5t86 182t26.5 228.5q0 113 -26.5 228.5t-102.5 203.5 q-45 51 -97 79t-109.5 42t-119 17t-122.5 3h-54v-452h305v-111h-305v-583z" />
<glyph unicode="&#xd1;" horiz-adv-x="1255" d="M76 0q59 41 70.5 98.5t11.5 124.5v918q0 68 -11.5 126t-70.5 99h225l664 -1102v877q0 68 -11.5 126t-70.5 99h295q-61 -41 -71.5 -98.5t-10.5 -126.5v-918q0 -66 11 -124t71 -99h-226l-665 1110v-887q0 -33 2 -64.5t10 -60t24.5 -53.5t45.5 -45h-293zM356 1489l25 113 q29 20 62.5 36.5t70.5 16.5q35 0 69 -10t66.5 -23.5t65.5 -23.5t69 -10q41 0 72 17t60 40l-25 -123q-59 -37 -129 -37q-35 0 -68.5 9.5t-65.5 20.5t-66 20.5t-68 9.5q-39 0 -73 -16.5t-65 -39.5z" />
<glyph unicode="&#xd2;" horiz-adv-x="1236" d="M96 682q0 119 29 244t92.5 228t161.5 169t239 66t239.5 -67t162 -169t92.5 -227t29 -244t-29 -243t-92.5 -226t-161.5 -167.5t-240 -65.5q-139 0 -238 65.5t-161.5 167.5t-92.5 226t-30 243zM254 682q0 -86 15.5 -189.5t55.5 -193.5t110.5 -150.5t182.5 -60.5 q111 0 182.5 60.5t111.5 150.5t55.5 193.5t15.5 189.5t-15.5 189.5t-55.5 194.5t-111.5 152.5t-182.5 61.5q-113 0 -183 -61.5t-110 -151.5t-55.5 -194.5t-15.5 -190.5zM426 1682h266q-16 -16 -16 -33q0 -20 20.5 -47t49 -53.5t56.5 -51l44 -38.5h-117z" />
<glyph unicode="&#xd3;" horiz-adv-x="1236" d="M96 682q0 119 29 244t92.5 228t161.5 169t239 66t239.5 -67t162 -169t92.5 -227t29 -244t-29 -243t-92.5 -226t-161.5 -167.5t-240 -65.5q-139 0 -238 65.5t-161.5 167.5t-92.5 226t-30 243zM254 682q0 -86 15.5 -189.5t55.5 -193.5t110.5 -150.5t182.5 -60.5 q111 0 182.5 60.5t111.5 150.5t55.5 193.5t15.5 189.5t-15.5 189.5t-55.5 194.5t-111.5 152.5t-182.5 61.5q-113 0 -183 -61.5t-110 -151.5t-55.5 -194.5t-15.5 -190.5zM401 1459l117 108q16 16 35.5 36t19.5 46q0 10 -5 17.5t-11 15.5h264l-303 -223h-117z" />
<glyph unicode="&#xd4;" horiz-adv-x="1236" d="M96 682q0 119 29 244t92.5 228t161.5 169t239 66t239.5 -67t162 -169t92.5 -227t29 -244t-29 -243t-92.5 -226t-161.5 -167.5t-240 -65.5q-139 0 -238 65.5t-161.5 167.5t-92.5 226t-30 243zM254 682q0 -86 15.5 -189.5t55.5 -193.5t110.5 -150.5t182.5 -60.5 q111 0 182.5 60.5t111.5 150.5t55.5 193.5t15.5 189.5t-15.5 189.5t-55.5 194.5t-111.5 152.5t-182.5 61.5q-113 0 -183 -61.5t-110 -151.5t-55.5 -194.5t-15.5 -190.5zM338 1461q27 20 47.5 42.5t42.5 47.5l203 239l207 -239q20 -25 40.5 -47.5t45.5 -42.5h-199 q10 14 10 30q0 23 -12 45.5t-29.5 44t-37 40t-33.5 34.5q-12 -14 -30.5 -33.5t-36 -40t-31 -42t-15.5 -41.5q0 -18 6 -37h-178z" />
<glyph unicode="&#xd5;" horiz-adv-x="1236" d="M96 682q0 119 29 244t92.5 228t161.5 169t239 66t239.5 -67t162 -169t92.5 -227t29 -244t-29 -243t-92.5 -226t-161.5 -167.5t-240 -65.5q-139 0 -238 65.5t-161.5 167.5t-92.5 226t-30 243zM254 682q0 -86 15.5 -189.5t55.5 -193.5t110.5 -150.5t182.5 -60.5 q111 0 182.5 60.5t111.5 150.5t55.5 193.5t15.5 189.5t-15.5 189.5t-55.5 194.5t-111.5 152.5t-182.5 61.5q-113 0 -183 -61.5t-110 -151.5t-55.5 -194.5t-15.5 -190.5zM342 1482l25 113q29 20 62.5 36.5t70.5 16.5q35 0 69 -10t66.5 -23.5t65.5 -23.5t69 -10q41 0 72 17 t60 40l-25 -123q-59 -37 -129 -37q-35 0 -68.5 9.5t-65.5 20.5t-66 20.5t-68 9.5q-39 0 -73 -16.5t-65 -39.5z" />
<glyph unicode="&#xd6;" horiz-adv-x="1236" d="M96 682q0 119 29 244t92.5 228t161.5 169t239 66t239.5 -67t162 -169t92.5 -227t29 -244t-29 -243t-92.5 -226t-161.5 -167.5t-240 -65.5q-139 0 -238 65.5t-161.5 167.5t-92.5 226t-30 243zM254 682q0 -86 15.5 -189.5t55.5 -193.5t110.5 -150.5t182.5 -60.5 q111 0 182.5 60.5t111.5 150.5t55.5 193.5t15.5 189.5t-15.5 189.5t-55.5 194.5t-111.5 152.5t-182.5 61.5q-113 0 -183 -61.5t-110 -151.5t-55.5 -194.5t-15.5 -190.5zM314 1571q0 37 26.5 63.5t63.5 26.5t63.5 -26.5t26.5 -63.5t-26.5 -63.5t-63.5 -26.5t-63.5 26.5 t-26.5 63.5zM736 1571q0 37 26.5 63.5t63.5 26.5t63.5 -26.5t26.5 -63.5t-26.5 -63.5t-63.5 -26.5t-63.5 26.5t-26.5 63.5z" />
<glyph unicode="&#xd7;" d="M125 375l326 325l-324 322l61 63l324 -323l324 323l65 -63l-326 -324l324 -323l-61 -62l-324 324l-326 -326z" />
<glyph unicode="&#xd8;" horiz-adv-x="1236" d="M53 63l146 181q-59 104 -81 216.5t-22 229.5q0 119 29 244t91.5 227.5t160.5 169t239 66.5q111 0 205 -47t162 -133l121 151l78 -59l-144 -176q57 -104 79 -215t22 -228q0 -119 -29 -243.5t-92.5 -228t-161.5 -169t-240 -65.5q-109 0 -202.5 46t-159.5 132l-125 -156z M252 690q0 -86 13.5 -163.5t33.5 -159.5l596 741q-43 78 -114.5 129t-164.5 51q-111 0 -181 -61.5t-111 -152.5t-56.5 -194.5t-15.5 -189.5zM340 268q43 -76 115.5 -126t160.5 -50q111 0 182.5 61.5t112.5 151.5t56.5 194.5t15.5 190.5q0 80 -10 160t-35 158z" />
<glyph unicode="&#xd9;" horiz-adv-x="1253" d="M76 1366h317q-59 -41 -70.5 -98.5t-11.5 -124.5v-668q0 -82 17.5 -151.5t57.5 -120.5t102.5 -81t152.5 -30q94 0 153.5 30t94.5 82t48 121.5t13 149.5v668q0 68 -12 125t-70 98h308q-59 -41 -70.5 -98.5t-11.5 -124.5v-668q0 -100 -19.5 -194.5t-93.5 -167.5 q-66 -70 -157 -104t-187 -34q-244 0 -361.5 132.5t-117.5 367.5v668q0 68 -11.5 125t-70.5 98zM430 1682h266q-16 -16 -16 -33q0 -20 20.5 -47t49 -53.5t56.5 -51l44 -38.5h-117z" />
<glyph unicode="&#xda;" horiz-adv-x="1253" d="M76 1366h317q-59 -41 -70.5 -98.5t-11.5 -124.5v-668q0 -82 17.5 -151.5t57.5 -120.5t102.5 -81t152.5 -30q94 0 153.5 30t94.5 82t48 121.5t13 149.5v668q0 68 -12 125t-70 98h308q-59 -41 -70.5 -98.5t-11.5 -124.5v-668q0 -100 -19.5 -194.5t-93.5 -167.5 q-66 -70 -157 -104t-187 -34q-244 0 -361.5 132.5t-117.5 367.5v668q0 68 -11.5 125t-70.5 98zM413 1459l117 108q16 16 35.5 36t19.5 46q0 10 -5 17.5t-11 15.5h264l-303 -223h-117z" />
<glyph unicode="&#xdb;" horiz-adv-x="1253" d="M76 1366h317q-59 -41 -70.5 -98.5t-11.5 -124.5v-668q0 -82 17.5 -151.5t57.5 -120.5t102.5 -81t152.5 -30q94 0 153.5 30t94.5 82t48 121.5t13 149.5v668q0 68 -12 125t-70 98h308q-59 -41 -70.5 -98.5t-11.5 -124.5v-668q0 -100 -19.5 -194.5t-93.5 -167.5 q-66 -70 -157 -104t-187 -34q-244 0 -361.5 132.5t-117.5 367.5v668q0 68 -11.5 125t-70.5 98zM334 1461q27 20 47.5 42.5t42.5 47.5l203 239l207 -239q20 -25 40.5 -47.5t45.5 -42.5h-199q10 14 10 30q0 23 -12 45.5t-29.5 44t-37 40t-33.5 34.5q-12 -14 -30.5 -33.5 t-36 -40t-31 -42t-15.5 -41.5q0 -18 6 -37h-178z" />
<glyph unicode="&#xdc;" horiz-adv-x="1253" d="M76 1366h317q-59 -41 -70.5 -98.5t-11.5 -124.5v-668q0 -82 17.5 -151.5t57.5 -120.5t102.5 -81t152.5 -30q94 0 153.5 30t94.5 82t48 121.5t13 149.5v668q0 68 -12 125t-70 98h308q-59 -41 -70.5 -98.5t-11.5 -124.5v-668q0 -100 -19.5 -194.5t-93.5 -167.5 q-66 -70 -157 -104t-187 -34q-244 0 -361.5 132.5t-117.5 367.5v668q0 68 -11.5 125t-70.5 98zM348 1569q0 37 26.5 63.5t63.5 26.5t63.5 -26.5t26.5 -63.5t-26.5 -63.5t-63.5 -26.5t-63.5 26.5t-26.5 63.5zM770 1569q0 37 26.5 63.5t63.5 26.5t63.5 -26.5t26.5 -63.5 t-26.5 -63.5t-63.5 -26.5t-63.5 26.5t-26.5 63.5z" />
<glyph unicode="&#xdd;" horiz-adv-x="1212" d="M2 1366h330q-16 -14 -28.5 -29.5t-12.5 -38.5q2 -35 19.5 -66.5t33.5 -57.5l258 -420l258 420q18 29 35.5 60.5t17.5 65.5q0 23 -11 38.5t-28 27.5h336q-68 -35 -109.5 -82t-82.5 -110l-340 -553v-398q0 -66 11 -124t71 -99h-318q59 41 70.5 98.5t11.5 124.5v398 l-340 553q-41 61 -78.5 109t-103.5 83zM401 1459l117 108q16 16 35.5 36t19.5 46q0 10 -5 17.5t-11 15.5h264l-303 -223h-117z" />
<glyph unicode="&#xde;" horiz-adv-x="993" d="M76 1368h317q-59 -41 -69.5 -98.5t-10.5 -124.5v-64l168 -2q90 0 177 -9t165 -60q68 -47 104 -119t36 -154q0 -129 -46.5 -201.5t-120 -108.5t-167.5 -45t-191 -9h-125v-150q0 -66 11.5 -124t70.5 -99h-317q59 41 70.5 98t11.5 125l-2 922q0 66 -11.5 124t-70.5 99z M313 481q29 0 58.5 -1t62.5 -1q68 0 134.5 7.5t119.5 32t86 73.5t33 133q0 82 -29.5 131t-77 74.5t-108 33t-123.5 7.5q-41 0 -81 -1t-75 -1v-488z" />
<glyph unicode="&#xdf;" horiz-adv-x="1085" d="M86 0q53 35 62.5 86t9.5 111v823q0 184 87 295.5t283 111.5q78 0 152 -22.5t130 -65.5t91 -107.5t35 -150.5q0 -82 -21.5 -133t-54.5 -84t-71.5 -49t-72.5 -26.5t-57.5 -17.5t-25.5 -21q0 -12 28.5 -26.5t70.5 -38t92 -54.5t92 -75t71 -101.5t29 -130.5q0 -82 -29 -146.5 t-79 -109.5t-118.5 -69t-148.5 -24q-66 0 -118 17.5t-87 17.5t-57 -24v305q39 -100 95 -154.5t171 -54.5q49 0 89 20.5t68.5 55.5t44 78t15.5 90q0 72 -31.5 123t-77.5 87.5t-101.5 66.5t-101.5 60.5t-78 67.5t-32 90q0 10 2 17.5t4 17.5q49 -12 103 -12q111 0 172 64.5 t61 170.5q0 51 -19.5 96.5t-53 77t-79.5 50t-98 18.5q-86 0 -132 -32t-67.5 -83t-24.5 -115.5t-3 -132.5v-958h-219z" />
<glyph unicode="&#xe0;" horiz-adv-x="1028" d="M57 293q0 96 48.5 179t130.5 132q113 63 237.5 76.5t251.5 13.5v37q0 66 -4 120t-27.5 92t-72 59.5t-134.5 21.5q-104 0 -189 -28.5t-151 -114.5v245q20 -14 39 -20t43 -6q80 0 159 14t159 14q158 0 240.5 -76.5t82.5 -236.5v-618q0 -59 9.5 -110.5t62.5 -86.5h-194 q-20 61 -23 119q-68 -66 -147.5 -105t-176.5 -39q-74 0 -137 21.5t-109 61.5t-72 99.5t-26 135.5zM211 301q0 -49 17.5 -89t48 -69.5t72.5 -45t89 -15.5q92 0 168 51t119 129v340q-16 0 -31.5 2t-31.5 2q-72 0 -152 -15.5t-146.5 -51t-109.5 -94t-43 -144.5zM256 1532h266 q-16 -16 -16 -33q0 -20 20.5 -47t49 -53.5t56.5 -51l44 -38.5h-117z" />
<glyph unicode="&#xe1;" horiz-adv-x="1028" d="M57 293q0 96 48.5 179t130.5 132q113 63 237.5 76.5t251.5 13.5v37q0 66 -4 120t-27.5 92t-72 59.5t-134.5 21.5q-104 0 -189 -28.5t-151 -114.5v245q20 -14 39 -20t43 -6q80 0 159 14t159 14q158 0 240.5 -76.5t82.5 -236.5v-618q0 -59 9.5 -110.5t62.5 -86.5h-194 q-20 61 -23 119q-68 -66 -147.5 -105t-176.5 -39q-74 0 -137 21.5t-109 61.5t-72 99.5t-26 135.5zM211 301q0 -49 17.5 -89t48 -69.5t72.5 -45t89 -15.5q92 0 168 51t119 129v340q-16 0 -31.5 2t-31.5 2q-72 0 -152 -15.5t-146.5 -51t-109.5 -94t-43 -144.5zM297 1309 l117 108q16 16 35.5 36t19.5 46q0 10 -5 17.5t-11 15.5h264l-303 -223h-117z" />
<glyph unicode="&#xe2;" horiz-adv-x="1028" d="M57 293q0 96 48.5 179t130.5 132q113 63 237.5 76.5t251.5 13.5v37q0 66 -4 120t-27.5 92t-72 59.5t-134.5 21.5q-104 0 -189 -28.5t-151 -114.5v245q20 -14 39 -20t43 -6q80 0 159 14t159 14q158 0 240.5 -76.5t82.5 -236.5v-618q0 -59 9.5 -110.5t62.5 -86.5h-194 q-20 61 -23 119q-68 -66 -147.5 -105t-176.5 -39q-74 0 -137 21.5t-109 61.5t-72 99.5t-26 135.5zM205 1309q27 20 47.5 42.5t42.5 47.5l203 239l207 -239q20 -25 40.5 -47.5t45.5 -42.5h-199q10 14 10 30q0 23 -12 45.5t-29.5 44t-37 40t-33.5 34.5q-12 -14 -30.5 -33.5 t-36 -40t-31 -42t-15.5 -41.5q0 -18 6 -37h-178zM211 301q0 -49 17.5 -89t48 -69.5t72.5 -45t89 -15.5q92 0 168 51t119 129v340q-16 0 -31.5 2t-31.5 2q-72 0 -152 -15.5t-146.5 -51t-109.5 -94t-43 -144.5z" />
<glyph unicode="&#xe3;" horiz-adv-x="1028" d="M57 293q0 96 48.5 179t130.5 132q113 63 237.5 76.5t251.5 13.5v37q0 66 -4 120t-27.5 92t-72 59.5t-134.5 21.5q-104 0 -189 -28.5t-151 -114.5v245q20 -14 39 -20t43 -6q80 0 159 14t159 14q158 0 240.5 -76.5t82.5 -236.5v-618q0 -59 9.5 -110.5t62.5 -86.5h-194 q-20 61 -23 119q-68 -66 -147.5 -105t-176.5 -39q-74 0 -137 21.5t-109 61.5t-72 99.5t-26 135.5zM202 1339l25 113q29 20 62.5 36.5t70.5 16.5q35 0 69 -10t66.5 -23.5t65.5 -23.5t69 -10q41 0 72 17t60 40l-25 -123q-59 -37 -129 -37q-35 0 -68.5 9.5t-65.5 20.5t-66 20.5 t-68 9.5q-39 0 -73 -16.5t-65 -39.5zM211 301q0 -49 17.5 -89t48 -69.5t72.5 -45t89 -15.5q92 0 168 51t119 129v340q-16 0 -31.5 2t-31.5 2q-72 0 -152 -15.5t-146.5 -51t-109.5 -94t-43 -144.5z" />
<glyph unicode="&#xe4;" horiz-adv-x="1028" d="M57 293q0 96 48.5 179t130.5 132q113 63 237.5 76.5t251.5 13.5v37q0 66 -4 120t-27.5 92t-72 59.5t-134.5 21.5q-104 0 -189 -28.5t-151 -114.5v245q20 -14 39 -20t43 -6q80 0 159 14t159 14q158 0 240.5 -76.5t82.5 -236.5v-618q0 -59 9.5 -110.5t62.5 -86.5h-194 q-20 61 -23 119q-68 -66 -147.5 -105t-176.5 -39q-74 0 -137 21.5t-109 61.5t-72 99.5t-26 135.5zM191 1423q0 37 26.5 63.5t63.5 26.5t63.5 -26.5t26.5 -63.5t-26.5 -63.5t-63.5 -26.5t-63.5 26.5t-26.5 63.5zM211 301q0 -49 17.5 -89t48 -69.5t72.5 -45t89 -15.5 q92 0 168 51t119 129v340q-16 0 -31.5 2t-31.5 2q-72 0 -152 -15.5t-146.5 -51t-109.5 -94t-43 -144.5zM613 1423q0 37 26.5 63.5t63.5 26.5t63.5 -26.5t26.5 -63.5t-26.5 -63.5t-63.5 -26.5t-63.5 26.5t-26.5 63.5z" />
<glyph unicode="&#xe5;" horiz-adv-x="1028" d="M57 293q0 96 48.5 179t130.5 132q113 63 237.5 76.5t251.5 13.5v37q0 66 -4 120t-27.5 92t-72 59.5t-134.5 21.5q-104 0 -189 -28.5t-151 -114.5v245q20 -14 39 -20t43 -6q80 0 159 14t159 14q158 0 240.5 -76.5t82.5 -236.5v-618q0 -59 9.5 -110.5t62.5 -86.5h-194 q-20 61 -23 119q-68 -66 -147.5 -105t-176.5 -39q-74 0 -137 21.5t-109 61.5t-72 99.5t-26 135.5zM211 301q0 -49 17.5 -89t48 -69.5t72.5 -45t89 -15.5q92 0 168 51t119 129v340q-16 0 -31.5 2t-31.5 2q-72 0 -152 -15.5t-146.5 -51t-109.5 -94t-43 -144.5zM337 1427 q0 45 17.5 84t48.5 68t71 46t83 17q45 0 85 -17t70.5 -46t48 -68t17.5 -84t-17.5 -83.5t-48 -68.5t-70.5 -46.5t-85 -16.5q-43 0 -83 16.5t-71 46.5t-48.5 68.5t-17.5 83.5zM428 1427q0 -53 38.5 -90t90.5 -37q53 0 91 37t38 90t-38 89t-91 36q-51 0 -90 -35.5t-39 -89.5z " />
<glyph unicode="&#xe6;" horiz-adv-x="1695" d="M57 293q0 70 23.5 128t64.5 104t96.5 79t118.5 53q86 29 175.5 34t179.5 9q0 70 -4 129.5t-25.5 102.5t-69 67.5t-133.5 24.5q-102 0 -180 -29.5t-145 -107.5v243q35 -27 86 -26q70 0 136 13t136 13q111 0 188.5 -28.5t141.5 -122.5v-4q63 72 145 112.5t178 40.5 q123 0 206 -46t133.5 -120.5t75 -173t30.5 -202.5h-744q0 -96 19.5 -186.5t65.5 -159t122 -110.5t187 -42q100 0 181 44t152 110l-61 -267q-29 23 -68 23q-55 0 -110 -11.5t-111 -11.5q-82 0 -145.5 12.5t-115.5 40t-97 72.5t-92 113l-2 4q-68 -104 -159 -173t-224 -69 q-74 0 -138.5 20.5t-112.5 60.5t-76 99.5t-28 137.5zM211 305q0 -96 61.5 -156.5t157.5 -60.5q55 0 105.5 21.5t91.5 57.5t71.5 82t42.5 97q-16 66 -21 130t-5 130q-72 -2 -160 -12t-165 -43t-128 -91.5t-51 -154.5zM879 700h573q-4 61 -21.5 120t-51 104t-84 72.5 t-119.5 27.5q-70 0 -122.5 -27.5t-88 -72.5t-57 -103.5t-29.5 -120.5z" />
<glyph unicode="&#xe7;" horiz-adv-x="909" d="M88 541q0 119 35 225t100.5 187t162.5 129t222 48q49 0 96.5 -11t96.5 -11q29 0 57 16l6 -237q-49 66 -107.5 101.5t-144.5 35.5q-98 0 -168.5 -44t-114.5 -112.5t-65.5 -154.5t-21.5 -172q0 -88 24.5 -170t71.5 -144.5t118.5 -100.5t168.5 -38q84 0 144 38t110 99 l-35 -250q-29 10 -59.5 11.5t-61.5 1.5q-16 0 -30.5 -1t-26.5 -5l-107 -138q31 0 64.5 -7t60.5 -22.5t44 -41t17 -62.5t-17 -64.5t-44 -47t-59.5 -29.5t-65.5 -10q-23 0 -42 2t-42 2q-12 0 -23.5 -2t-21.5 -13l-45 109q37 -16 73 -25.5t77 -9.5q39 0 68.5 18.5t29.5 61.5 q0 31 -18.5 48.5t-45 25.5t-58.5 10t-56 2h-25l141 186q-115 4 -205 52.5t-151 126t-94 178t-33 209.5z" />
<glyph unicode="&#xe8;" horiz-adv-x="1069" d="M88 547q0 102 26.5 206.5t82 187.5t141.5 135t205 52q123 0 204.5 -45t133 -120.5t76 -174t30.5 -202.5h-743q0 -96 19.5 -186.5t65.5 -159t121.5 -110.5t186.5 -42q100 0 181 44t153 110l-62 -267q-29 23 -67 23q-55 0 -110.5 -11.5t-110.5 -11.5q-127 0 -226.5 43 t-167 119t-103.5 181.5t-36 228.5zM252 700h573q-4 61 -21.5 120t-51 104t-84 72.5t-119.5 27.5q-70 0 -122 -27.5t-88 -72.5t-57.5 -103.5t-29.5 -120.5zM328 1532h266q-16 -16 -16 -33q0 -20 20.5 -47t49 -53.5t56.5 -51l44 -38.5h-117z" />
<glyph unicode="&#xe9;" horiz-adv-x="1069" d="M88 547q0 102 26.5 206.5t82 187.5t141.5 135t205 52q123 0 204.5 -45t133 -120.5t76 -174t30.5 -202.5h-743q0 -96 19.5 -186.5t65.5 -159t121.5 -110.5t186.5 -42q100 0 181 44t153 110l-62 -267q-29 23 -67 23q-55 0 -110.5 -11.5t-110.5 -11.5q-127 0 -226.5 43 t-167 119t-103.5 181.5t-36 228.5zM252 700h573q-4 61 -21.5 120t-51 104t-84 72.5t-119.5 27.5q-70 0 -122 -27.5t-88 -72.5t-57.5 -103.5t-29.5 -120.5zM338 1309l117 108q16 16 35.5 36t19.5 46q0 10 -5 17.5t-11 15.5h264l-303 -223h-117z" />
<glyph unicode="&#xea;" horiz-adv-x="1069" d="M88 547q0 102 26.5 206.5t82 187.5t141.5 135t205 52q123 0 204.5 -45t133 -120.5t76 -174t30.5 -202.5h-743q0 -96 19.5 -186.5t65.5 -159t121.5 -110.5t186.5 -42q100 0 181 44t153 110l-62 -267q-29 23 -67 23q-55 0 -110.5 -11.5t-110.5 -11.5q-127 0 -226.5 43 t-167 119t-103.5 181.5t-36 228.5zM252 700h573q-4 61 -21.5 120t-51 104t-84 72.5t-119.5 27.5q-70 0 -122 -27.5t-88 -72.5t-57.5 -103.5t-29.5 -120.5zM258 1309q27 20 47.5 42.5t42.5 47.5l203 239l207 -239q20 -25 40.5 -47.5t45.5 -42.5h-199q10 14 10 30 q0 23 -12 45.5t-29.5 44t-37 40t-33.5 34.5q-12 -14 -30.5 -33.5t-36 -40t-31 -42t-15.5 -41.5q0 -18 6 -37h-178z" />
<glyph unicode="&#xeb;" horiz-adv-x="1069" d="M88 547q0 102 26.5 206.5t82 187.5t141.5 135t205 52q123 0 204.5 -45t133 -120.5t76 -174t30.5 -202.5h-743q0 -96 19.5 -186.5t65.5 -159t121.5 -110.5t186.5 -42q100 0 181 44t153 110l-62 -267q-29 23 -67 23q-55 0 -110.5 -11.5t-110.5 -11.5q-127 0 -226.5 43 t-167 119t-103.5 181.5t-36 228.5zM240 1419q0 37 26.5 63.5t63.5 26.5t63.5 -26.5t26.5 -63.5t-26.5 -63.5t-63.5 -26.5t-63.5 26.5t-26.5 63.5zM252 700h573q-4 61 -21.5 120t-51 104t-84 72.5t-119.5 27.5q-70 0 -122 -27.5t-88 -72.5t-57.5 -103.5t-29.5 -120.5z M662 1419q0 37 26.5 63.5t63.5 26.5t63.5 -26.5t26.5 -63.5t-26.5 -63.5t-63.5 -26.5t-63.5 26.5t-26.5 63.5z" />
<glyph unicode="&#xec;" horiz-adv-x="462" d="M16 1532h266q-16 -16 -16 -33q0 -20 20.5 -47t49 -53.5t56.5 -51l44 -38.5h-117zM86 0q51 35 61.5 86t10.5 111v712q0 57 -10.5 109.5t-61.5 87.5h219v-909q0 -29 1 -56.5t8.5 -53.5t21.5 -47.5t41 -39.5h-291z" />
<glyph unicode="&#xed;" horiz-adv-x="462" d="M26 1309l117 108q16 16 35.5 36t19.5 46q0 10 -5 17.5t-11 15.5h264l-303 -223h-117zM86 0q51 35 61.5 86t10.5 111v712q0 57 -10.5 109.5t-61.5 87.5h219v-909q0 -29 1 -56.5t8.5 -53.5t21.5 -47.5t41 -39.5h-291z" />
<glyph unicode="&#xee;" horiz-adv-x="462" d="M-61 1307q27 20 47.5 42.5t42.5 47.5l203 239l207 -239q20 -25 40.5 -47.5t45.5 -42.5h-199q10 14 10 30q0 23 -12 45.5t-29.5 44t-37 40t-33.5 34.5q-12 -14 -30.5 -33.5t-36 -40t-31 -42t-15.5 -41.5q0 -18 6 -37h-178zM86 0q51 35 61.5 86t10.5 111v712 q0 57 -10.5 109.5t-61.5 87.5h219v-909q0 -29 1 -56.5t8.5 -53.5t21.5 -47.5t41 -39.5h-291z" />
<glyph unicode="&#xef;" horiz-adv-x="462" d="M-67 1419q0 37 26.5 63.5t63.5 26.5t63.5 -26.5t26.5 -63.5t-26.5 -63.5t-63.5 -26.5t-63.5 26.5t-26.5 63.5zM86 0q51 35 61.5 86t10.5 111v712q0 57 -10.5 109.5t-61.5 87.5h219v-909q0 -29 1 -56.5t8.5 -53.5t21.5 -47.5t41 -39.5h-291zM355 1419q0 37 26.5 63.5 t63.5 26.5t63.5 -26.5t26.5 -63.5t-26.5 -63.5t-63.5 -26.5t-63.5 26.5t-26.5 63.5z" />
<glyph unicode="&#xf0;" horiz-adv-x="1107" d="M88 543q0 104 33 208.5t94 188.5t151.5 136t204.5 52q72 0 126.5 -24.5t105.5 -71.5v187h-234v88h234q-2 47 -15.5 86t-56.5 67h217v-153h193v-88h-193v-1022q0 -59 9.5 -110.5t62.5 -86.5h-193q-18 49 -24 104q-55 -59 -114.5 -94t-143.5 -35q-119 0 -205 49.5 t-142.5 129t-83 181t-26.5 208.5zM242 543q0 -74 14 -155t49 -148.5t94.5 -112.5t149.5 -45q86 0 152.5 43t101.5 121v631q-31 72 -82 109.5t-131 37.5q-92 0 -158.5 -46t-108.5 -116.5t-61.5 -155.5t-19.5 -163z" />
<glyph unicode="&#xf1;" horiz-adv-x="1122" d="M88 0q51 35 61.5 86t10.5 111v710q0 57 -10.5 109.5t-61.5 87.5h205v-146q63 80 142 125t183 45q74 0 147 -27.5t120 -86.5q59 -76 70.5 -161t11.5 -177v-479q0 -29 1 -56.5t8 -53.5t21.5 -47.5t40.5 -39.5h-219v674q0 63 -7 125.5t-31.5 112t-71.5 80t-127 30.5 q-84 0 -137.5 -37t-84 -94t-42 -128t-11.5 -138v-428q0 -29 1 -56.5t8.5 -53.5t21.5 -47.5t41 -39.5h-291zM284 1339l25 113q29 20 62.5 36.5t70.5 16.5q35 0 69 -10t66.5 -23.5t65.5 -23.5t69 -10q41 0 72 17t60 40l-25 -123q-59 -37 -129 -37q-35 0 -68.5 9.5t-65.5 20.5 t-66 20.5t-68 9.5q-39 0 -73 -16.5t-65 -39.5z" />
<glyph unicode="&#xf2;" horiz-adv-x="1103" d="M90 565q0 104 28.5 204.5t87 180.5t145.5 129t202 49t202 -49t145 -129t87 -180.5t29 -204.5q0 -109 -25.5 -214t-82 -188t-144.5 -135.5t-211 -52.5t-211 52.5t-143.5 135.5t-82 188.5t-26.5 213.5zM244 563q0 -78 11 -163t45 -155.5t94.5 -116.5t158.5 -46t158.5 46 t94.5 116.5t45 155.5t11 163q0 74 -14 155t-50 148.5t-95.5 112.5t-149.5 45t-150.5 -45t-95.5 -112.5t-49 -148.5t-14 -155zM350 1532h266q-16 -16 -16 -33q0 -20 20.5 -47t49 -53.5t56.5 -51l44 -38.5h-117z" />
<glyph unicode="&#xf3;" horiz-adv-x="1103" d="M90 565q0 104 28.5 204.5t87 180.5t145.5 129t202 49t202 -49t145 -129t87 -180.5t29 -204.5q0 -109 -25.5 -214t-82 -188t-144.5 -135.5t-211 -52.5t-211 52.5t-143.5 135.5t-82 188.5t-26.5 213.5zM244 563q0 -78 11 -163t45 -155.5t94.5 -116.5t158.5 -46t158.5 46 t94.5 116.5t45 155.5t11 163q0 74 -14 155t-50 148.5t-95.5 112.5t-149.5 45t-150.5 -45t-95.5 -112.5t-49 -148.5t-14 -155zM366 1309l117 108q16 16 35.5 36t19.5 46q0 10 -5 17.5t-11 15.5h264l-303 -223h-117z" />
<glyph unicode="&#xf4;" horiz-adv-x="1103" d="M90 565q0 104 28.5 204.5t87 180.5t145.5 129t202 49t202 -49t145 -129t87 -180.5t29 -204.5q0 -109 -25.5 -214t-82 -188t-144.5 -135.5t-211 -52.5t-211 52.5t-143.5 135.5t-82 188.5t-26.5 213.5zM244 563q0 -78 11 -163t45 -155.5t94.5 -116.5t158.5 -46t158.5 46 t94.5 116.5t45 155.5t11 163q0 74 -14 155t-50 148.5t-95.5 112.5t-149.5 45t-150.5 -45t-95.5 -112.5t-49 -148.5t-14 -155zM262 1309q27 20 47.5 42.5t42.5 47.5l203 239l207 -239q20 -25 40.5 -47.5t45.5 -42.5h-199q10 14 10 30q0 23 -12 45.5t-29.5 44t-37 40 t-33.5 34.5q-12 -14 -30.5 -33.5t-36 -40t-31 -42t-15.5 -41.5q0 -18 6 -37h-178z" />
<glyph unicode="&#xf5;" horiz-adv-x="1103" d="M90 565q0 104 28.5 204.5t87 180.5t145.5 129t202 49t202 -49t145 -129t87 -180.5t29 -204.5q0 -109 -25.5 -214t-82 -188t-144.5 -135.5t-211 -52.5t-211 52.5t-143.5 135.5t-82 188.5t-26.5 213.5zM244 563q0 -78 11 -163t45 -155.5t94.5 -116.5t158.5 -46t158.5 46 t94.5 116.5t45 155.5t11 163q0 74 -14 155t-50 148.5t-95.5 112.5t-149.5 45t-150.5 -45t-95.5 -112.5t-49 -148.5t-14 -155zM260 1339l25 113q29 20 62.5 36.5t70.5 16.5q35 0 69 -10t66.5 -23.5t65.5 -23.5t69 -10q41 0 72 17t60 40l-25 -123q-59 -37 -129 -37 q-35 0 -68.5 9.5t-65.5 20.5t-66 20.5t-68 9.5q-39 0 -73 -16.5t-65 -39.5z" />
<glyph unicode="&#xf6;" horiz-adv-x="1103" d="M90 565q0 104 28.5 204.5t87 180.5t145.5 129t202 49t202 -49t145 -129t87 -180.5t29 -204.5q0 -109 -25.5 -214t-82 -188t-144.5 -135.5t-211 -52.5t-211 52.5t-143.5 135.5t-82 188.5t-26.5 213.5zM244 563q0 -78 11 -163t45 -155.5t94.5 -116.5t158.5 -46t158.5 46 t94.5 116.5t45 155.5t11 163q0 74 -14 155t-50 148.5t-95.5 112.5t-149.5 45t-150.5 -45t-95.5 -112.5t-49 -148.5t-14 -155zM258 1419q0 37 26.5 63.5t63.5 26.5t63.5 -26.5t26.5 -63.5t-26.5 -63.5t-63.5 -26.5t-63.5 26.5t-26.5 63.5zM680 1419q0 37 26.5 63.5t63.5 26.5 t63.5 -26.5t26.5 -63.5t-26.5 -63.5t-63.5 -26.5t-63.5 26.5t-26.5 63.5z" />
<glyph unicode="&#xf7;" d="M45 653v88h932v-88h-932zM430 322q0 33 23.5 56t56.5 23q35 0 58.5 -23.5t23.5 -55.5q0 -35 -23.5 -58.5t-58.5 -23.5q-33 0 -56.5 23.5t-23.5 58.5zM430 1075q0 33 23.5 56.5t58.5 23.5q33 0 56.5 -23.5t23.5 -56.5q0 -35 -23.5 -58.5t-56.5 -23.5q-35 0 -58.5 23.5 t-23.5 58.5z" />
<glyph unicode="&#xf8;" horiz-adv-x="1021" d="M2 53l129 148q-47 86 -64.5 177t-17.5 187q0 104 28.5 204.5t87 180.5t145.5 129t202 49q92 0 173 -34.5t140 -102.5l123 142l74 -62l-137 -158q47 -78 68.5 -167t21.5 -181q0 -109 -25.5 -214t-82 -188t-144.5 -135.5t-211 -52.5q-94 0 -176 35t-146 107l-116 -135z M203 563q0 -63 5 -126t23 -122l510 580q-39 59 -98 94t-131 35q-90 0 -150.5 -45t-95.5 -112.5t-49 -148.5t-14 -155zM274 213q37 -66 100.5 -98.5t137.5 -32.5q98 0 158.5 46t94.5 116.5t45 155.5t11 163q0 59 -8.5 120t-26.5 116z" />
<glyph unicode="&#xf9;" horiz-adv-x="1134" d="M84 1106h219v-729q0 -63 12.5 -116.5t41 -91.5t75.5 -59.5t119 -21.5q78 0 131 34t87 87t48 118.5t14 131.5v450q0 59 -10 110.5t-61 86.5h215v-909q0 -59 9 -110.5t63 -86.5h-216v135q-66 -76 -135 -118t-172 -42q-193 0 -280.5 110t-87.5 292v532q0 57 -10.5 109.5 t-61.5 87.5zM352 1532h266q-16 -16 -16 -33q0 -20 20.5 -47t49 -53.5t56.5 -51l44 -38.5h-117z" />
<glyph unicode="&#xfa;" horiz-adv-x="1134" d="M84 1106h219v-729q0 -63 12.5 -116.5t41 -91.5t75.5 -59.5t119 -21.5q78 0 131 34t87 87t48 118.5t14 131.5v450q0 59 -10 110.5t-61 86.5h215v-909q0 -59 9 -110.5t63 -86.5h-216v135q-66 -76 -135 -118t-172 -42q-193 0 -280.5 110t-87.5 292v532q0 57 -10.5 109.5 t-61.5 87.5zM360 1309l117 108q16 16 35.5 36t19.5 46q0 10 -5 17.5t-11 15.5h264l-303 -223h-117z" />
<glyph unicode="&#xfb;" horiz-adv-x="1134" d="M84 1106h219v-729q0 -63 12.5 -116.5t41 -91.5t75.5 -59.5t119 -21.5q78 0 131 34t87 87t48 118.5t14 131.5v450q0 59 -10 110.5t-61 86.5h215v-909q0 -59 9 -110.5t63 -86.5h-216v135q-66 -76 -135 -118t-172 -42q-193 0 -280.5 110t-87.5 292v532q0 57 -10.5 109.5 t-61.5 87.5zM262 1309q27 20 47.5 42.5t42.5 47.5l203 239l207 -239q20 -25 40.5 -47.5t45.5 -42.5h-199q10 14 10 30q0 23 -12 45.5t-29.5 44t-37 40t-33.5 34.5q-12 -14 -30.5 -33.5t-36 -40t-31 -42t-15.5 -41.5q0 -18 6 -37h-178z" />
<glyph unicode="&#xfc;" horiz-adv-x="1134" d="M84 1106h219v-729q0 -63 12.5 -116.5t41 -91.5t75.5 -59.5t119 -21.5q78 0 131 34t87 87t48 118.5t14 131.5v450q0 59 -10 110.5t-61 86.5h215v-909q0 -59 9 -110.5t63 -86.5h-216v135q-66 -76 -135 -118t-172 -42q-193 0 -280.5 110t-87.5 292v532q0 57 -10.5 109.5 t-61.5 87.5zM256 1419q0 37 26.5 63.5t63.5 26.5t63.5 -26.5t26.5 -63.5t-26.5 -63.5t-63.5 -26.5t-63.5 26.5t-26.5 63.5zM678 1419q0 37 26.5 63.5t63.5 26.5t63.5 -26.5t26.5 -63.5t-26.5 -63.5t-63.5 -26.5t-63.5 26.5t-26.5 63.5z" />
<glyph unicode="&#xfd;" horiz-adv-x="1071" d="M-39 -156q43 -33 92 -52t103 -19q72 0 123 35.5t86.5 89t59.5 118t40 119.5l-275 713q-16 45 -31.5 84t-36 70.5t-50 57t-74.5 46.5h348q-20 -16 -35.5 -36.5t-15.5 -47.5q0 -35 12 -65.5t23 -61.5l213 -578l178 474q18 51 38.5 114.5t20.5 116.5q0 29 -13 48.5t-32 35.5 h336q-80 -35 -118 -95.5t-66 -138.5l-355 -909q-47 -119 -98 -183.5t-102 -95t-101.5 -36.5t-94.5 -6t-79.5 -5t-58.5 -32zM338 1307l117 108q16 16 35.5 36t19.5 46q0 10 -5 17.5t-11 15.5h264l-303 -223h-117z" />
<glyph unicode="&#xfe;" horiz-adv-x="1107" d="M88 -369q51 35 61.5 86.5t10.5 110.5v1081q0 29 -1 97.5t-8.5 143.5t-21.5 137.5t-41 80.5h219v-395q59 78 127 117.5t168 39.5q102 0 181 -48t131.5 -123.5t79 -170t26.5 -184.5q0 -100 -23.5 -210.5t-76 -204t-137.5 -154t-205 -60.5q-80 0 -146.5 34t-124.5 85v-266 q0 -61 11.5 -111.5t66.5 -85.5h-297zM307 229q35 -68 103.5 -107.5t146.5 -39.5q96 0 156.5 51t94.5 128t46 166t12 165q0 66 -13 141.5t-46 140t-88 107.5t-137 43q-53 0 -97.5 -19.5t-79 -53t-59 -77t-39.5 -90.5v-555z" />
<glyph unicode="&#xff;" horiz-adv-x="1071" d="M-39 -156q43 -33 92 -52t103 -19q72 0 123 35.5t86.5 89t59.5 118t40 119.5l-275 713q-16 45 -31.5 84t-36 70.5t-50 57t-74.5 46.5h348q-20 -16 -35.5 -36.5t-15.5 -47.5q0 -35 12 -65.5t23 -61.5l213 -578l178 474q18 51 38.5 114.5t20.5 116.5q0 29 -13 48.5t-32 35.5 h336q-80 -35 -118 -95.5t-66 -138.5l-355 -909q-47 -119 -98 -183.5t-102 -95t-101.5 -36.5t-94.5 -6t-79.5 -5t-58.5 -32zM242 1421q0 37 26.5 63.5t63.5 26.5t63.5 -26.5t26.5 -63.5t-26.5 -63.5t-63.5 -26.5t-63.5 26.5t-26.5 63.5zM664 1421q0 37 26.5 63.5t63.5 26.5 t63.5 -26.5t26.5 -63.5t-26.5 -63.5t-63.5 -26.5t-63.5 26.5t-26.5 63.5z" />
<glyph unicode="&#x152;" horiz-adv-x="1654" d="M96 682q0 125 28 252t91.5 227.5t164.5 164t249 63.5q66 0 131 -12.5t131 -12.5h649l19 -195q-49 59 -108.5 72.5t-133.5 13.5h-270v-454h335q47 0 79 10t65 43v-221q-31 37 -61.5 48t-80.5 11h-337v-583h348q41 0 70.5 3t54 13t45 28.5t45.5 51.5l-25 -205h-694 q-66 0 -131.5 -12.5t-130.5 -12.5q-147 0 -250 63.5t-165 164t-90 226.5t-28 253zM254 688q0 -102 16.5 -206.5t60.5 -191.5t121.5 -143.5t200.5 -62.5q57 0 101.5 7t75 27.5t46 59t15.5 101.5v817q0 117 -50 155.5t-163 38.5q-129 0 -211 -54t-129 -140t-65.5 -193.5 t-18.5 -214.5z" />
<glyph unicode="&#x153;" horiz-adv-x="1839" d="M90 541q0 106 26.5 211.5t83 189.5t143.5 136t208 52q59 0 116.5 -16t108.5 -46t93 -73t69 -96q57 104 155.5 166.5t219.5 62.5q127 0 224 -58t155 -173q37 -72 49 -152.5t16 -158.5h-743q0 -96 19.5 -186.5t65.5 -159t121.5 -110.5t186.5 -42q100 0 181 44t153 110 l-60 -267q-29 23 -67 23q-57 0 -111.5 -11.5t-111.5 -11.5q-143 0 -261 58.5t-192 185.5l-4 -6q-55 -109 -153.5 -173.5t-221.5 -64.5q-117 0 -205 48.5t-146 128t-88 181t-30 208.5zM244 553q0 -78 14 -161t51 -150.5t99.5 -110.5t158.5 -43q88 0 145.5 46t91.5 117 t46 151.5t12 152.5q0 76 -14 160t-49 152.5t-97.5 113.5t-156.5 45q-92 0 -151.5 -46t-92.5 -116.5t-45 -153.5t-12 -157zM1024 700h573q-4 61 -22.5 120t-52 104t-83.5 72.5t-120 27.5q-68 0 -120 -27.5t-89 -72.5t-58.5 -103.5t-27.5 -120.5z" />
<glyph unicode="&#x178;" horiz-adv-x="1212" d="M2 1366h330q-16 -14 -28.5 -29.5t-12.5 -38.5q2 -35 19.5 -66.5t33.5 -57.5l258 -420l258 420q18 29 35.5 60.5t17.5 65.5q0 23 -11 38.5t-28 27.5h336q-68 -35 -109.5 -82t-82.5 -110l-340 -553v-398q0 -66 11 -124t71 -99h-318q59 41 70.5 98.5t11.5 124.5v398 l-340 553q-41 61 -78.5 109t-103.5 83zM307 1571q0 37 26.5 63.5t63.5 26.5t63.5 -26.5t26.5 -63.5t-26.5 -63.5t-63.5 -26.5t-63.5 26.5t-26.5 63.5zM729 1571q0 37 26.5 63.5t63.5 26.5t63.5 -26.5t26.5 -63.5t-26.5 -63.5t-63.5 -26.5t-63.5 26.5t-26.5 63.5z" />
<glyph unicode="&#x2c6;" d="M213 1309q27 20 47.5 42.5t42.5 47.5l203 239l207 -239q20 -25 40.5 -47.5t45.5 -42.5h-199q10 14 10 30q0 23 -12 45.5t-29.5 44t-37 40t-33.5 34.5q-12 -14 -30.5 -33.5t-36 -40t-31 -42t-15.5 -41.5q0 -18 6 -37h-178z" />
<glyph unicode="&#x2dc;" d="M231 1339l25 113q29 20 62.5 36.5t70.5 16.5q35 0 69 -10t66.5 -23.5t65.5 -23.5t69 -10q41 0 72 17t60 40l-25 -123q-59 -37 -129 -37q-35 0 -68.5 9.5t-65.5 20.5t-66 20.5t-68 9.5q-39 0 -73 -16.5t-65 -39.5z" />
<glyph unicode="&#x2000;" horiz-adv-x="919" />
<glyph unicode="&#x2001;" horiz-adv-x="1839" />
<glyph unicode="&#x2002;" horiz-adv-x="919" />
<glyph unicode="&#x2003;" horiz-adv-x="1839" />
<glyph unicode="&#x2004;" horiz-adv-x="613" />
<glyph unicode="&#x2005;" horiz-adv-x="459" />
<glyph unicode="&#x2006;" horiz-adv-x="306" />
<glyph unicode="&#x2007;" horiz-adv-x="306" />
<glyph unicode="&#x2008;" horiz-adv-x="229" />
<glyph unicode="&#x2009;" horiz-adv-x="367" />
<glyph unicode="&#x200a;" horiz-adv-x="102" />
<glyph unicode="&#x2010;" horiz-adv-x="684" d="M98 498v125h488v-125h-488z" />
<glyph unicode="&#x2011;" horiz-adv-x="684" d="M98 498v125h488v-125h-488z" />
<glyph unicode="&#x2012;" horiz-adv-x="684" d="M98 498v125h488v-125h-488z" />
<glyph unicode="&#x2013;" horiz-adv-x="1038" d="M78 498v125h870v-125h-870z" />
<glyph unicode="&#x2014;" horiz-adv-x="1114" d="M-29 498v125h1170v-125h-1170z" />
<glyph unicode="&#x2018;" horiz-adv-x="428" d="M109 1116q0 63 19.5 123t39.5 119l127 49q-23 -51 -41 -104.5t-18 -110.5q0 -55 27.5 -95t76.5 -63l-172 -53q-25 29 -42 61.5t-17 73.5z" />
<glyph unicode="&#x2019;" horiz-adv-x="428" d="M86 1354l172 53q27 -29 43 -61.5t16 -73.5q0 -63 -19.5 -123t-39.5 -119l-125 -49q23 51 41.5 104.5t18.5 110.5q0 113 -107 158z" />
<glyph unicode="&#x201a;" horiz-adv-x="411" d="M78 106l172 54q27 -29 43 -61.5t16 -73.5q0 -63 -19.5 -123t-39.5 -119l-125 -49q23 51 41 104t18 111q0 113 -106 157z" />
<glyph unicode="&#x201c;" horiz-adv-x="694" d="M98 1102q0 63 20 122.5t40 118.5l127 50q-23 -51 -41.5 -104.5t-18.5 -110.5q0 -55 28 -95.5t77 -62.5l-172 -53q-25 29 -42.5 61.5t-17.5 73.5zM393 1116q0 66 25 123.5t35 118.5l127 49q-23 -51 -41.5 -105.5t-18.5 -109.5q0 -113 107 -158l-174 -53q-25 29 -42.5 61.5 t-17.5 73.5z" />
<glyph unicode="&#x201d;" horiz-adv-x="694" d="M78 1354l172 53q27 -29 43 -61.5t16 -73.5q0 -63 -19.5 -123t-39.5 -119l-125 -49q23 51 41 104.5t18 110.5q0 113 -106 158zM373 1368l174 53q25 -29 42 -62.5t17 -72.5q0 -59 -18 -123t-41 -119l-127 -49q23 51 41 104.5t18 110.5q0 55 -27.5 95.5t-78.5 62.5z" />
<glyph unicode="&#x201e;" horiz-adv-x="694" d="M78 106l172 54q27 -29 43 -61.5t16 -73.5q0 -63 -19.5 -123t-39.5 -119l-125 -49q23 51 41 104t18 111q0 113 -106 157zM373 121l174 53q25 -29 42 -62.5t17 -72.5q0 -59 -18 -123t-41 -119l-127 -49q23 51 41 104.5t18 110.5q0 55 -27.5 95t-78.5 63z" />
<glyph unicode="&#x2022;" horiz-adv-x="1228" d="M406 586q0 82 57 139t139 57q41 0 78 -15t64.5 -42t43 -62.5t15.5 -76.5t-15.5 -77t-43 -62.5t-64.5 -42t-78 -15.5q-82 0 -139 57.5t-57 139.5z" />
<glyph unicode="&#x2026;" horiz-adv-x="1253" d="M96 96q0 47 34 79t79 32t79 -32t34 -79q0 -45 -34 -76.5t-79 -31.5t-79 31.5t-34 76.5zM571 96q0 47 33 79t80 32q45 0 79 -32t34 -79q0 -45 -34 -76.5t-79 -31.5q-47 0 -80 31.5t-33 76.5zM1006 96q0 47 33.5 79t78.5 32t79 -32t34 -79q0 -45 -34 -76.5t-79 -31.5 t-78.5 31.5t-33.5 76.5z" />
<glyph unicode="&#x202f;" horiz-adv-x="367" />
<glyph unicode="&#x2039;" horiz-adv-x="606" d="M96 559l187 342l18 41q4 6 7 14.5t3 16.5t-4 20h201q-35 -31 -64.5 -69.5t-52.5 -81.5l-153 -283l153 -283q23 -41 52.5 -79.5t64.5 -71.5h-201q4 12 4 22q0 16 -11 36t-17 36z" />
<glyph unicode="&#x203a;" horiz-adv-x="606" d="M96 125q37 33 65.5 72t51.5 79l156 283l-156 283q-23 43 -51.5 82t-65.5 69h203q-2 -4 -4 -10t-2 -10q0 -16 10 -35.5t19 -36.5l186 -342l-186 -340q-6 -16 -17.5 -35.5t-11.5 -36.5q0 -6 2 -12t4 -10h-203z" />
<glyph unicode="&#x205f;" horiz-adv-x="459" />
<glyph unicode="&#x2122;" horiz-adv-x="1765" d="M94 1190l23 176h565l23 -176q-25 33 -42.5 52.5t-37 29.5t-44 13t-61.5 3h-63v-602q0 -33 2 -53.5t9 -35.5t20.5 -26.5t33.5 -23.5h-246q20 12 34 23.5t21 26.5t10 35.5t3 53.5v602h-63q-39 0 -63.5 -3t-44 -13t-37 -29.5t-42.5 -52.5zM743 547q23 14 38.5 28.5t23.5 33 t12 44t6 62.5l27 516q0 25 -1 44t-6 34.5t-17.5 29t-34.5 27.5h147l276 -461l275 461h145q-39 -31 -49 -50.5t-10 -62.5v-15t2 -19l31 -527q4 -66 18 -93.5t60 -51.5h-248q39 29 50 49t11 66v17t-2 17l-22 457l-267 -438l-266 438l-18 -438q0 -10 -1 -20.5t-1 -20.5 q0 -53 11 -76t52 -51h-242z" />
<glyph unicode="&#x25fc;" horiz-adv-x="1105" d="M0 0v1106h1106v-1106h-1106z" />
</font>
</defs>
</svg>
